<?xml version="1.0" encoding="UTF-8"?>
<svg version="1.1" xmlns="http://www.w3.org/2000/svg" width="309" height="408">
<path d="M0 0 C1.02673828 0.00080566 2.05347656 0.00161133 3.11132812 0.00244141 C10.33411113 0.05883484 17.4935977 0.42046158 24.6875 1.0625 C25.57606689 1.14089111 26.46463379 1.21928223 27.38012695 1.30004883 C32.64461512 1.82423605 37.62071333 2.63947386 42.6875 4.1875 C44.125 6.25 44.125 6.25 44.6875 9.1875 C44.90019531 10.18330078 44.90019531 10.18330078 45.1171875 11.19921875 C46.31204907 18.18550117 44.67641173 23.64204865 41.25 29.75 C39.6875 31.1875 39.6875 31.1875 35.6875 31.1875 C35.41035156 30.33285156 35.13320312 29.47820312 34.84765625 28.59765625 C34.48542969 27.49292969 34.12320313 26.38820312 33.75 25.25 C33.39035156 24.14785156 33.03070313 23.04570313 32.66015625 21.91015625 C31.94893332 19.30626525 31.94893332 19.30626525 30.6875 18.1875 C28.33762738 17.95222227 25.98193961 17.77363583 23.625 17.625 C22.33464844 17.54121094 21.04429688 17.45742187 19.71484375 17.37109375 C18.21630859 17.28021484 18.21630859 17.28021484 16.6875 17.1875 C16.6875 18.8375 16.6875 20.4875 16.6875 22.1875 C19.6575 23.1775 22.6275 24.1675 25.6875 25.1875 C25.3575 26.5075 25.0275 27.8275 24.6875 29.1875 C21.125 30.9375 21.125 30.9375 17.6875 32.1875 C17.3575 35.1575 17.0275 38.1275 16.6875 41.1875 C17.62980469 40.878125 18.57210937 40.56875 19.54296875 40.25 C24.3023336 38.89393317 29.08218645 38.5655946 34 38.1875 C35.95977513 38.02511488 37.91940981 37.86102659 39.87890625 37.6953125 C41.34094482 37.5720459 41.34094482 37.5720459 42.83251953 37.44628906 C47.04396056 37.06454394 51.23899081 36.56425663 55.4375 36.0625 C61.55851235 35.34332978 67.52350214 34.98866136 73.6875 35.1875 C73.6875 36.1775 73.6875 37.1675 73.6875 38.1875 C69.46527778 41.1875 69.46527778 41.1875 66.6875 41.1875 C66.6875 42.8375 66.6875 44.4875 66.6875 46.1875 C55.55598677 48.35520582 44.40499705 50.21347223 33.1875 51.875 C31.67053257 52.10194405 30.15360529 52.32915657 28.63671875 52.55664062 C24.98743366 53.10333618 21.33762939 53.64646657 17.6875 54.1875 C17.65657761 55.15802811 17.65657761 55.15802811 17.62503052 56.14816284 C17.40917482 62.86400923 17.17995862 69.57930389 16.94287109 76.29443359 C16.85608497 78.80278005 16.77274129 81.31124802 16.69287109 83.81982422 C16.5776759 87.41931842 16.45022956 91.01819841 16.3203125 94.6171875 C16.27017502 96.30785843 16.27017502 96.30785843 16.21902466 98.03268433 C16.17913422 99.07361237 16.13924377 100.11454041 16.09814453 101.18701172 C16.06705597 102.10634491 16.03596741 103.0256781 16.00393677 103.97286987 C15.6875 106.1875 15.6875 106.1875 13.6875 108.1875 C12.02847656 108.77917969 12.02847656 108.77917969 10.3359375 109.3828125 C6.11053071 111.12861302 4.34266369 114.10902333 2.3125 118.0625 C1.97089844 118.67480469 1.62929687 119.28710938 1.27734375 119.91796875 C-0.57265081 123.33278085 -1.6469343 126.38508009 -2.3125 130.1875 C-1.14400513 130.17964478 -1.14400513 130.17964478 0.0480957 130.17163086 C42.42047395 129.92511654 42.42047395 129.92511654 55.6875 133.1875 C56.06461942 141.10700786 55.13066119 147.3598808 50.8125 154.125 C48.6875 156.1875 48.6875 156.1875 43.6875 158.1875 C44.1825 151.7525 44.1825 151.7525 44.6875 145.1875 C40.0675 145.5175 35.4475 145.8475 30.6875 146.1875 C30.85338623 147.75242188 31.01927246 149.31734375 31.19018555 150.9296875 C31.74713454 157.07864984 31.74862633 163.14434097 31.64453125 169.3125 C31.62217672 171.5872312 31.60071773 173.86197134 31.58007812 176.13671875 C31.54277893 179.68335383 31.49930516 183.22952801 31.44067383 186.77587891 C31.38643801 190.22565588 31.35718346 193.67490517 31.33203125 197.125 C31.30824905 198.19057129 31.28446686 199.25614258 31.25996399 200.35400391 C31.25466927 201.83199463 31.25466927 201.83199463 31.24926758 203.33984375 C31.2314196 204.6390979 31.2314196 204.6390979 31.21321106 205.96459961 C31.49878073 208.37799039 31.49878073 208.37799039 33.71488953 209.99047852 C34.36585098 210.38549561 35.01681244 210.7805127 35.6875 211.1875 C35.10627889 214.67482669 33.9221975 216.22440856 31.4375 218.6875 C25.63216729 225.05310096 23.32784155 233.13505565 20.6875 241.1875 C19.6975 241.1875 18.7075 241.1875 17.6875 241.1875 C17.26339844 240.13691406 16.83929688 239.08632813 16.40234375 238.00390625 C13.36000958 230.65750484 10.45948046 224.03873623 5.16796875 217.984375 C3.65216597 216.14461438 2.66915564 214.35193097 1.6875 212.1875 C3.62004772 210.1629262 5.31908688 208.76644208 7.6875 207.1875 C12.81153489 188.71905339 10.80351844 164.88361063 7.6875 146.1875 C3.3975 146.1875 -0.8925 146.1875 -5.3125 146.1875 C-4.9825 148.1675 -4.6525 150.1475 -4.3125 152.1875 C-4.24944796 153.97817806 -4.22578886 155.77087579 -4.25 157.5625 C-4.25902344 158.43648437 -4.26804687 159.31046875 -4.27734375 160.2109375 C-4.28894531 160.86320313 -4.30054687 161.51546875 -4.3125 162.1875 C-10.65936508 159.28607596 -13.15112573 154.22465857 -15.55078125 147.94921875 C-18.80732735 138.06767165 -18.80732735 138.06767165 -17.3125 133.1875 C-14.62508075 130.50008075 -10.03927996 130.93285599 -6.3125 130.1875 C-5.9825 93.2275 -5.6525 56.2675 -5.3125 18.1875 C-12.9025 18.1875 -20.4925 18.1875 -28.3125 18.1875 C-32.3125 16.1875 -32.3125 16.1875 -33.3125 14.1875 C-33.76640071 7.03856383 -33.76640071 7.03856383 -32.3125 4.3125 C-23.10753244 -0.86529425 -10.22973737 -0.00853047 0 0 Z " fill="#FBFBFB" transform="translate(71.3125,102.8125)"/>
<path d="M0 0 C0.99 0 1.98 0 3 0 C2.75960048 8.19871039 2.51630378 16.39732794 2.26950932 24.59584808 C2.15494635 28.40451724 2.04130745 32.21320886 1.92993164 36.02197266 C1.82200799 39.71143121 1.71145969 43.40080334 1.59924126 47.09013367 C1.55728928 48.48358998 1.51621531 49.87707308 1.4761219 51.27058411 C1.26167842 58.70243947 0.98240755 66.12934268 0.56811523 73.55273438 C0.49898422 74.81484741 0.42985321 76.07696045 0.35862732 77.37731934 C-0.82814094 89.36548144 -5.37918744 98.60595954 -14.6875 106.25 C-22.43807174 111.65598645 -31.74646092 114.37667745 -40.69921875 117.10546875 C-43.16335322 117.76705633 -43.16335322 117.76705633 -44 120 C-45.77260631 119.54857225 -47.5430368 119.08859477 -49.3125 118.625 C-50.79169922 118.24214844 -50.79169922 118.24214844 -52.30078125 117.8515625 C-55 117 -55 117 -58 115 C-56.58396135 111.72721679 -54.90346146 109.68313127 -52.25 107.3125 C-51.26773438 106.40951172 -51.26773438 106.40951172 -50.265625 105.48828125 C-47.49446758 103.6679175 -45.26301288 103.4796137 -42 103 C-34.85876473 100.22905194 -27.79034325 96.95839135 -24 90 C-22.24134653 85.06887361 -21.73189692 80.22801003 -22 75 C-22.99 75.99 -23.98 76.98 -25 78 C-26.9375 77.25 -26.9375 77.25 -29 76 C-29.12375 75.34386719 -29.2475 74.68773437 -29.375 74.01171875 C-29.58125 73.34785156 -29.7875 72.68398437 -30 72 C-31.81539009 71.03728869 -31.81539009 71.03728869 -34.0625 70.5625 C-41.16970729 68.46881633 -46.78397361 65.23971906 -51 59 C-52.55977064 55.88045872 -52.12104126 52.57040616 -52.09765625 49.1484375 C-52.0962413 48.37440582 -52.09482635 47.60037415 -52.09336853 46.80288696 C-52.08776403 44.32688558 -52.07521083 41.85097412 -52.0625 39.375 C-52.05748558 37.69791797 -52.05292257 36.02083453 -52.04882812 34.34375 C-52.03779315 30.22913194 -52.02052554 26.11458122 -52 22 C-50.9944104 21.73932739 -50.9944104 21.73932739 -49.96850586 21.47338867 C-43.13056333 19.58615843 -43.13056333 19.58615843 -37.5625 15.3125 C-35.69140625 13.42578125 -35.69140625 13.42578125 -34 12 C-33.01 12 -32.02 12 -31 12 C-31 25.86 -31 39.72 -31 54 C-29.68 53.34 -28.36 52.68 -27 52 C-25.68 52 -24.36 52 -23 52 C-21.62470676 49.24941352 -21.92252263 47.07779422 -21.97265625 44.00390625 C-21.98490234 42.80572266 -21.99714844 41.60753906 -22.00976562 40.37304688 C-22.04486862 37.83653065 -22.08391919 35.30006594 -22.12695312 32.76367188 C-22.13791016 31.56419922 -22.14886719 30.36472656 -22.16015625 29.12890625 C-22.17699463 28.02619385 -22.19383301 26.92348145 -22.21118164 25.78735352 C-22 23 -22 23 -20 20 C-18.948125 19.62875 -17.89625 19.2575 -16.8125 18.875 C-11.63390984 16.82290307 -9.09475243 12.42514025 -6 8 C-4.9244862 6.47362678 -3.84166986 4.9523604 -2.75 3.4375 C-2.29109375 2.77621094 -1.8321875 2.11492187 -1.359375 1.43359375 C-0.68648438 0.72396484 -0.68648438 0.72396484 0 0 Z " fill="#FCFCFC" transform="translate(267,148)"/>
<path d="M0 0 C0.66 0.33 1.32 0.66 2 1 C2 33.34 2 65.68 2 99 C3.65 99.33 5.3 99.66 7 100 C12.08012331 104.61829392 14.60887033 112.11549298 15.28515625 118.83203125 C15.32318161 122.54222001 15.1792437 125.4622689 14 129 C9.17619198 129.0246519 4.35242033 129.04283693 -0.47143555 129.05493164 C-2.11369464 129.05997174 -3.75594923 129.06680378 -5.39819336 129.07543945 C-7.75375479 129.08751926 -10.10925709 129.09323139 -12.46484375 129.09765625 C-13.20339096 129.10281754 -13.94193817 129.10797882 -14.7028656 129.11329651 C-16.46898088 129.1134925 -18.23497146 129.06194719 -20 129 C-21 128 -21 128 -21.1328125 125.41015625 C-21.13023437 124.30542969 -21.12765625 123.20070313 -21.125 122.0625 C-21.12757813 120.98097656 -21.13015625 119.89945312 -21.1328125 118.78515625 C-21.03473704 115.99000578 -20.8254609 113.35130579 -20.5 110.58496094 C-19.86337728 104.33953627 -19.85636301 98.12836552 -19.8671875 91.85546875 C-19.86575241 89.9870507 -19.86575241 89.9870507 -19.86428833 88.08088684 C-19.86343827 84.78299173 -19.86742319 81.48514461 -19.87304688 78.18725586 C-19.87625599 74.90152365 -19.86861223 71.61580591 -19.86328125 68.33007812 C-19.86364546 65.75520803 -19.86493719 63.18033789 -19.8671875 60.60546875 C-19.86652283 59.3518454 -19.86585815 58.09822205 -19.86517334 56.80661011 C-19.88495271 51.03978689 -19.99905621 45.3237662 -20.44238281 39.57275391 C-20.51409698 38.60002029 -20.58581116 37.62728668 -20.65969849 36.62507629 C-20.80379828 34.84135108 -20.97469831 33.0594966 -21.177948 31.28153992 C-21.37158203 28.9230957 -21.37158203 28.9230957 -21 25 C-18.14233398 22.60107422 -18.14233398 22.60107422 -15 21 C-10.17931821 15.4644974 -6.33076381 9.20940301 -3.0078125 2.6796875 C-2 1 -2 1 0 0 Z M1 100 C-0.00392976 106.525434 -0.00392976 106.525434 1 113 C1.99 113 2.98 113 4 113 C5.18771723 109.57056481 4.80226223 107.62215325 3.5625 104.25 C3.27503906 103.45078125 2.98757812 102.6515625 2.69140625 101.828125 C2.34916016 100.92320312 2.34916016 100.92320312 2 100 C1.67 100 1.34 100 1 100 Z " fill="#FBFBFB" transform="translate(194,219)"/>
<path d="M0 0 C0.99 0 1.98 0 3 0 C3.44085938 0.81597656 3.88171875 1.63195312 4.3359375 2.47265625 C5.75078627 5.26452333 5.75078627 5.26452333 8.6015625 5.55859375 C9.59929687 5.51863281 10.59703125 5.47867187 11.625 5.4375 C12.69234375 5.39496094 13.7596875 5.35242188 14.859375 5.30859375 C18.35038258 4.96557186 21.62867767 4.32236388 25.01953125 3.4453125 C27.69993692 2.84261773 30.26684168 2.85983803 33 3 C32.875 5.6875 32.875 5.6875 32 9 C31.030625 9.73476563 30.06125 10.46953125 29.0625 11.2265625 C25.45973529 14.08416845 24.72414218 17.25751074 24.125 21.6875 C23.95859009 22.75315186 23.95859009 22.75315186 23.78881836 23.84033203 C21.91848079 36.54707327 24.03800294 44.85465879 30.16796875 56.11328125 C31.1631185 58.36988843 31.54531046 60.58234012 32 63 C31.26885986 62.99476318 30.53771973 62.98952637 29.78442383 62.98413086 C26.46045802 62.96329839 23.13650597 62.95031986 19.8125 62.9375 C18.66201172 62.92912109 17.51152344 62.92074219 16.32617188 62.91210938 C15.21435547 62.90888672 14.10253906 62.90566406 12.95703125 62.90234375 C11.42526245 62.89448853 11.42526245 62.89448853 9.86254883 62.88647461 C7.12454965 62.9950605 4.66895793 63.40727746 2 64 C-5.25784356 64.66177647 -10.93556617 64.24649142 -17 60 C-19.6875 57.6875 -19.6875 57.6875 -22 55 C-22.43183594 54.50886719 -22.86367187 54.01773438 -23.30859375 53.51171875 C-28.42645991 47.14855578 -30.38956819 39.53822674 -30 31.4375 C-28.80487748 22.61875385 -24.98442191 15.93727356 -18.04296875 10.40234375 C-13.00420104 6.94361028 -8.10384247 5.62284107 -2 5 C-1.34 3.35 -0.68 1.7 0 0 Z M-4 19 C-8.70074803 26.15331221 -8.69952528 35.34040281 -7.25 43.5625 C-6.52569809 47.02629866 -5.58798985 49.51890538 -3 52 C0.07496637 52.14365516 0.07496637 52.14365516 3 52 C3.11656783 47.79190116 3.18737611 43.58422004 3.25 39.375 C3.28351563 38.18519531 3.31703125 36.99539063 3.3515625 35.76953125 C3.53788551 27.03850262 3.53788551 27.03850262 -1 20 C-1.99 19.67 -2.98 19.34 -4 19 Z " fill="#FBFBFB" transform="translate(138,256)"/>
<path d="M0 0 C1.0209375 1.2065625 1.0209375 1.2065625 2.0625 2.4375 C5.6453965 5.56300546 7.2955207 5.73361897 12 6 C14.98048226 5.57303532 17.84518186 4.84573631 20.75 4.0625 C28.71410891 2 28.71410891 2 32 2 C31.875 5.125 31.875 5.125 31 9 C29.54787109 10.33417969 29.54787109 10.33417969 28.06640625 11.6953125 C24.30945606 15.27629575 23.68796696 18.7257486 23.0625 23.75 C22.95188232 24.55493896 22.84126465 25.35987793 22.72729492 26.18920898 C21.11110603 38.97531727 24.42879811 46.99245508 30.28149414 58.25756836 C31 60 31 60 31 63 C30.16750732 62.99476318 29.33501465 62.98952637 28.47729492 62.98413086 C25.38550065 62.96707775 22.29373036 62.95454435 19.2019043 62.94506836 C17.20685232 62.93757271 15.21182214 62.92486655 13.21679688 62.91210938 C11.96318359 62.90888672 10.70957031 62.90566406 9.41796875 62.90234375 C8.26063232 62.89710693 7.1032959 62.89187012 5.91088867 62.88647461 C2.93395589 62.86700539 2.93395589 62.86700539 0 64 C-8.32682682 65.00184701 -13.51262328 62.46167768 -20.1875 57.75 C-27.43259518 50.66590694 -30.01105383 42.99796471 -30.3125 33 C-30.09224264 23.25973003 -26.7886732 17.83433692 -20 11 C-19.2575 10.236875 -18.515 9.47375 -17.75 8.6875 C-14.2021243 6.51039445 -10.67365972 5.7606051 -6.62109375 4.90625 C-3.56077539 3.84813695 -2.10542524 2.41752357 0 0 Z M-5 18 C-8.89049137 27.07781319 -9.88063256 38.4079921 -6.75 47.9375 C-5.37035293 51.05751653 -5.37035293 51.05751653 -3.140625 51.81640625 C-0.57764738 52.22383121 -0.57764738 52.22383121 3 50 C3 41.42 3 32.84 3 24 C1.68 23.34 0.36 22.68 -1 22 C-2.25 19.875 -2.25 19.875 -3 18 C-3.66 18 -4.32 18 -5 18 Z " fill="#FBFAFB" transform="translate(123,156)"/>
<path d="M0 0 C5.94904105 7.12042302 6.8227281 14.26067555 6.3125 23.3125 C1.99433341 24.75188886 -2.29407684 24.35446081 -6.79492188 24.2734375 C-11.85128868 24.10855953 -11.85128868 24.10855953 -16.6875 25.3125 C-17.98410434 27.80284386 -17.98410434 27.80284386 -18.6875 30.3125 C-20.0075 30.3125 -21.3275 30.3125 -22.6875 30.3125 C-23.3475 29.3225 -24.0075 28.3325 -24.6875 27.3125 C-24.39290991 30.84758103 -23.93868587 32.07453444 -21.3125 34.5625 C-15.84180003 38.20963332 -9.92588602 37.84121608 -3.625 36.8125 C-2.6659375 36.565 -2.6659375 36.565 -1.6875 36.3125 C-1.6875 33.6725 -1.6875 31.0325 -1.6875 28.3125 C-0.6975 27.9825 0.2925 27.6525 1.3125 27.3125 C6.97979561 31.05966466 12.57531954 36.25846668 14.1875 42.9375 C14.3125 46.3125 14.3125 46.3125 12.3125 49.3125 C6.90177977 50.8030328 1.13772124 50.49623296 -4.4375 50.5 C-5.84515625 50.51836914 -5.84515625 50.51836914 -7.28125 50.53710938 C-19.60126883 50.56263428 -30.79181999 47.95916182 -40.6875 40.3125 C-47.36682692 33.4813702 -48.07047286 26.39105416 -47.97851562 17.23608398 C-47.74885555 8.0422381 -45.21784513 2.97660288 -38.9296875 -3.703125 C-26.5807694 -14.63213265 -10.7576966 -11.29558143 0 0 Z M-23.3125 4.5625 C-24.8243362 6.48665516 -25.27541279 7.92239418 -25.6875 10.3125 C-23.9732711 11.54646041 -23.9732711 11.54646041 -21.6875 12.3125 C-18.9681707 11.52547649 -18.9681707 11.52547649 -16.6875 10.3125 C-17.3475 8.0025 -18.0075 5.6925 -18.6875 3.3125 C-21.63288008 3.00764462 -21.63288008 3.00764462 -23.3125 4.5625 Z " fill="#FCFCFB" transform="translate(248.6875,283.6875)"/>
<path d="M0 0 C4.78715623 -0.07415168 9.57397827 -0.12860204 14.36157227 -0.16479492 C15.99021223 -0.17988243 17.61881156 -0.20035506 19.24731445 -0.22631836 C21.58815535 -0.26270449 23.92845919 -0.2797262 26.26953125 -0.29296875 C26.99775589 -0.30845261 27.72598053 -0.32393646 28.47627258 -0.33988953 C31.37984186 -0.34085639 33.4781187 -0.33651292 35.95825195 1.26269531 C37.21673334 3.36144234 37.38685201 4.64889197 37.3984375 7.08984375 C37.40423828 8.26643555 37.40423828 8.26643555 37.41015625 9.46679688 C37.39855469 10.28212891 37.38695312 11.09746094 37.375 11.9375 C37.38660156 12.74896484 37.39820313 13.56042969 37.41015625 14.39648438 C37.38081091 20.35848009 37.38081091 20.35848009 35.4765625 23.56640625 C34.98929688 24.03949219 34.50203125 24.51257813 34 25 C32.125 24.7421875 32.125 24.7421875 30 24 C28.875 22.2578125 28.875 22.2578125 28 20.125 C26.57567142 16.67863352 25.11874404 15.06616793 22 13 C22.144375 13.8971875 22.28875 14.794375 22.4375 15.71875 C23.85435259 25.24314799 24.40748562 34.36587567 24 44 C23.96648437 45.22847656 23.93296875 46.45695312 23.8984375 47.72265625 C23.63056648 51.1169648 23.29599643 53.84922607 22 57 C19.64657615 58.72967805 17.41355528 59.61088352 14.67578125 60.61328125 C10.31199287 62.87480661 8.26640746 66.7000617 5.69140625 70.76953125 C5.13324219 71.50558594 4.57507813 72.24164063 4 73 C3.01 73 2.02 73 1 73 C1.144375 72.13246094 1.28875 71.26492187 1.4375 70.37109375 C4.38053503 49.79028631 4.2425407 28.36937789 0.65625 7.89453125 C0 4 0 4 0 0 Z " fill="#FBFBFB" transform="translate(187,136)"/>
<path d="M0 0 C3.63 0.33 7.26 0.66 11 1 C13.97 1 16.94 1 20 1 C20 18.16 20 35.32 20 53 C18.35 53.66 16.7 54.32 15 55 C11.22769617 59.02999442 8.61868732 63.84400354 5.91210938 68.62304688 C5.02067106 70.13176742 4.01737481 71.57316839 3 73 C2.01 73 1.02 73 0 73 C0 48.91 0 24.82 0 0 Z " fill="#FDFCFC" transform="translate(161,159)"/>
<path d="M0 0 C2.475 0.495 2.475 0.495 5 1 C5.125 8.75 5.125 8.75 4 11 C5.32 11 6.64 11 8 11 C7.34 9.68 6.68 8.36 6 7 C7.32 5.02 8.64 3.04 10 1 C10.804375 1.185625 11.60875 1.37125 12.4375 1.5625 C13.283125 1.706875 14.12875 1.85125 15 2 C15.33 1.67 15.66 1.34 16 1 C17.66014616 0.63557767 19.32706064 0.30027117 21 0 C22.28418268 3.70682519 21.79339087 6.73100309 21.1875 10.5625 C21.01605469 11.69816406 20.84460938 12.83382812 20.66796875 14.00390625 C20 17 20 17 18 20 C17.01 19.67 16.02 19.34 15 19 C15.33 17.68 15.66 16.36 16 15 C14.1858073 15.28094582 12.37364999 15.57506433 10.5625 15.875 C9.55316406 16.03742188 8.54382813 16.19984375 7.50390625 16.3671875 C6.67761719 16.57601562 5.85132813 16.78484375 5 17 C4.67 17.66 4.34 18.32 4 19 C0.04 19 -3.92 19 -8 19 C-8.66 17.02 -9.32 15.04 -10 13 C-10.556875 13.639375 -11.11375 14.27875 -11.6875 14.9375 C-14.27563785 17.24583917 -15.55122887 17.91378072 -19 18 C-21.3125 16.5625 -21.3125 16.5625 -23 15 C-23.763125 15.495 -24.52625 15.99 -25.3125 16.5 C-28 18 -28 18 -31 18 C-30.625 16.0625 -30.625 16.0625 -30 14 C-29.34 13.67 -28.68 13.34 -28 13 C-28.99 12.34 -29.98 11.68 -31 11 C-31.3125 7.5 -31.3125 7.5 -31 4 C-29 2 -29 2 -26.79296875 1.83984375 C-25.93316406 1.87207031 -25.07335938 1.90429688 -24.1875 1.9375 C-21.26845401 2.00900401 -18.93168401 1.98546468 -16.0625 1.375 C-14 1 -14 1 -11 3 C-8.35367713 2.6878236 -8.35367713 2.6878236 -6 2 C-4.875 5.75 -4.875 5.75 -6 8 C-5.34 8 -4.68 8 -4 8 C-4 6.35 -4 4.7 -4 3 C-3.01 2.67 -2.02 2.34 -1 2 C-0.67 1.34 -0.34 0.68 0 0 Z M-17 6 C-17 8.64 -17 11.28 -17 14 C-14.65026182 12.10244856 -14.65026182 12.10244856 -14.875 8.875 C-14.936875 7.451875 -14.936875 7.451875 -15 6 C-15.66 6 -16.32 6 -17 6 Z M-3 12 C-3 12.99 -3 13.98 -3 15 C-2.34 15 -1.68 15 -1 15 C-1 14.01 -1 13.02 -1 12 C-1.66 12 -2.32 12 -3 12 Z " fill="#F4F1F9" transform="translate(70,62)"/>
<path d="M0 0 C2.475 0.495 2.475 0.495 5 1 C4.67 4.3 4.34 7.6 4 11 C4.99 11 5.98 11 7 11 C6.79375 10.236875 6.5875 9.47375 6.375 8.6875 C6 6 6 6 8 3 C8.66 3 9.32 3 10 3 C10 2.34 10 1.68 10 1 C14.75 2.875 14.75 2.875 17 4 C16.505 2.515 16.505 2.515 16 1 C17.65 0.67 19.3 0.34 21 0 C22.32963842 3.98891525 21.38405007 7.18462836 20.5625 11.1875 C20.41490234 11.93708984 20.26730469 12.68667969 20.11523438 13.45898438 C19.75027209 15.30734174 19.37602589 17.15386161 19 19 C17.68 19.33 16.36 19.66 15 20 C15.33 18.35 15.66 16.7 16 15 C15.319375 15.165 14.63875 15.33 13.9375 15.5 C10.5835178 16.07089059 7.39610195 16.06659023 4 16 C4 16.99 4 17.98 4 19 C0.04 19 -3.92 19 -8 19 C-8 17.02 -8 15.04 -8 13 C-10.31916086 14.11663301 -12.33692112 15.24189209 -14.4375 16.75 C-15.283125 17.1625 -16.12875 17.575 -17 18 C-18.67540664 17.35561283 -20.34183216 16.68753301 -22 16 C-24.01927511 16.60578253 -26.02253397 17.26919734 -28 18 C-28.99 17.67 -29.98 17.34 -31 17 C-32.72260269 13.55479462 -32.36938476 9.77444065 -32 6 C-30.8125 3.5 -30.8125 3.5 -29 2 C-25.29810681 0.73356285 -22.7509256 1.24981488 -19 2 C-17.33034549 1.68197057 -15.66321482 1.35015049 -14 1 C-13.01 1.33 -12.02 1.66 -11 2 C-10.154375 2 -9.30875 2 -8.4375 2 C-6 2 -6 2 -4 3 C-2.68 3 -1.36 3 0 3 C0 2.01 0 1.02 0 0 Z M-26 6 C-28.28728734 7.83883881 -28.28728734 7.83883881 -28.125 10.625 C-28.08375 11.40875 -28.0425 12.1925 -28 13 C-27.01 13.495 -27.01 13.495 -26 14 C-24.64560332 11.29120665 -24.93498549 8.99066732 -25 6 C-25.33 6 -25.66 6 -26 6 Z M-17 7 C-17.33 8.98 -17.66 10.96 -18 13 C-17.01 12.67 -16.02 12.34 -15 12 C-15 10.35 -15 8.7 -15 7 C-15.66 7 -16.32 7 -17 7 Z M-3 12 C-3.33 12.99 -3.66 13.98 -4 15 C-2.68 14.67 -1.36 14.34 0 14 C-0.33 13.34 -0.66 12.68 -1 12 C-1.66 12 -2.32 12 -3 12 Z M3 13 C4 15 4 15 4 15 Z " fill="#F6F4F9" transform="translate(194,62)"/>
<path d="M0 0 C2.475 0.495 2.475 0.495 5 1 C5.12375 1.969375 5.2475 2.93875 5.375 3.9375 C5.58125 4.948125 5.7875 5.95875 6 7 C6.66 7.33 7.32 7.66 8 8 C8 5.69 8 3.38 8 1 C10.3796612 -0.1898306 11.91485735 -0.13349966 14.5625 -0.125 C15.77099609 -0.12886719 15.77099609 -0.12886719 17.00390625 -0.1328125 C19 0 19 0 20 1 C20.04092937 3.33297433 20.04241723 5.66705225 20 8 C20.99 8.33 21.98 8.66 23 9 C23 9.99 23 10.98 23 12 C21.68 12 20.36 12 19 12 C19.185625 12.969375 19.37125 13.93875 19.5625 14.9375 C19.706875 15.948125 19.85125 16.95875 20 18 C18.44616792 19.55383208 16.77276704 19.38172542 14.625 19.625 C13.43777344 19.76808594 13.43777344 19.76808594 12.2265625 19.9140625 C10 20 10 20 7 19 C6.87625 17.865625 6.7525 16.73125 6.625 15.5625 C6.41875 14.386875 6.2125 13.21125 6 12 C5.34 11.67 4.68 11.34 4 11 C3.34 13.97 2.68 16.94 2 20 C1.01 20 0.02 20 -1 20 C-1.33 18.68 -1.66 17.36 -2 16 C-4.97 16.33 -7.94 16.66 -11 17 C-11.33 15.35 -11.66 13.7 -12 12 C-12.99 12.495 -12.99 12.495 -14 13 C-14.144375 13.804375 -14.28875 14.60875 -14.4375 15.4375 C-15 18 -15 18 -18 20 C-21.1875 19.625 -21.1875 19.625 -24 19 C-24 16.69 -24 14.38 -24 12 C-25.32 11.67 -26.64 11.34 -28 11 C-28 10.01 -28 9.02 -28 8 C-26.68 8 -25.36 8 -24 8 C-24 5.69 -24 3.38 -24 1 C-20.04 1 -16.08 1 -12 1 C-11.67 3.31 -11.34 5.62 -11 8 C-11 7.01 -11 6.02 -11 5 C-11 4.34 -11 3.68 -11 3 C-7.62902617 1.50178941 -5.79557881 1 -2 1 C-2 1.66 -2 2.32 -2 3 C-1.34 3 -0.68 3 0 3 C0 2.01 0 1.02 0 0 Z " fill="#F4F2F8" transform="translate(122,62)"/>
<path d="M0 0 C1.8871875 -0.02126953 1.8871875 -0.02126953 3.8125 -0.04296875 C7 0.1875 7 0.1875 9 2.1875 C9.66 1.5275 10.32 0.8675 11 0.1875 C13.33595238 0.50195513 15.66905466 0.8378582 18 1.1875 C20.00451121 0.88246569 22.00448218 0.54669321 24 0.1875 C27.0020841 0.09862251 29.99749942 0.12744999 33 0.1875 C33.89399349 3.37938788 33.84436115 4.99769122 33 8.1875 C32.97755752 10.18737408 32.97547868 12.18765033 33 14.1875 C25.33333333 14.1875 17.66666667 14.1875 10 14.1875 C10 13.5275 10 12.8675 10 12.1875 C9.34 12.1875 8.68 12.1875 8 12.1875 C8 12.8475 8 13.5075 8 14.1875 C1.73 14.1875 -4.54 14.1875 -11 14.1875 C-11 5.85416667 -11 5.85416667 -9 1.1875 C-6.02958551 -0.29770725 -3.30235553 0.0169178 0 0 Z M19 4.1875 C18.67 5.8375 18.34 7.4875 18 9.1875 C19.32 9.5175 20.64 9.8475 22 10.1875 C22 9.5275 22 8.8675 22 8.1875 C22.99 8.1875 23.98 8.1875 25 8.1875 C25 7.5275 25 6.8675 25 6.1875 C24.01 6.1875 23.02 6.1875 22 6.1875 C22 5.5275 22 4.8675 22 4.1875 C21.01 4.1875 20.02 4.1875 19 4.1875 Z M3 5.1875 C4 8.1875 4 8.1875 4 8.1875 Z M2 8.1875 C3 11.1875 3 11.1875 3 11.1875 Z " fill="#F5F0F9" transform="translate(129,30.8125)"/>
<path d="M0 0 C-0.11992589 5.68857487 -0.24424458 11.37703233 -0.37231445 17.06542969 C-0.41513461 18.99313879 -0.45683613 20.92087312 -0.49731445 22.84863281 C-1.45533259 68.3130985 -1.45533259 68.3130985 -13 80 C-21.19709838 87.73678616 -32.13296454 90.88488543 -42.69921875 94.10546875 C-45.16335322 94.76705633 -45.16335322 94.76705633 -46 97 C-46.99 96.67 -47.98 96.34 -49 96 C-49 95.01 -49 94.02 -49 93 C-43.97970294 87.97970294 -35.67524556 85.70153318 -29 84 C-27.7934375 83.690625 -27.7934375 83.690625 -26.5625 83.375 C-26.046875 83.25125 -25.53125 83.1275 -25 83 C-25 82.34 -25 81.68 -25 81 C-23.824375 80.62875 -23.824375 80.62875 -22.625 80.25 C-19.51121388 78.7672447 -19.37055029 78.04208417 -18 75 C-17.15326168 73.45424095 -16.2988887 71.91264311 -15.4375 70.375 C-14.25527911 68.26313955 -13.08234999 66.16469998 -12 64 C-11.34 64 -10.68 64 -10 64 C-10 63.34 -10 62.68 -10 62 C-9.34 62 -8.68 62 -8 62 C-6.52064881 53.70956237 -5.78418944 45.55255945 -5.47265625 37.1484375 C-5.41916519 35.71664154 -5.41916519 35.71664154 -5.36459351 34.25592041 C-5.22247911 30.28143381 -5.09052942 26.30677253 -4.97094727 22.33154297 C-4.87963779 19.39493545 -4.77099795 16.45936323 -4.66015625 13.5234375 C-4.63816666 12.62555511 -4.61617706 11.72767273 -4.59352112 10.80258179 C-4.16216011 0 -4.16216011 0 0 0 Z " fill="#DCDCDB" transform="translate(269,171)"/>
<path d="M0 0 C0.99 0.33 1.98 0.66 3 1 C3.95703125 3.0390625 3.95703125 3.0390625 4.8125 5.625 C6.47320452 10.16598893 8.46033753 13.09010735 11.92578125 16.4296875 C13 18 13 18 12.79296875 20.0078125 C12 22 12 22 10 25 C10 27.97 10 30.94 10 34 C4.06 34 -1.88 34 -8 34 C-9 30 -9 30 -8 27 C-8.9873454 25.32580562 -9.98812105 23.65948148 -11 22 C-11 17.71913835 -10.8686682 17.40119409 -8.3125 14.375 C-4.77650311 9.92350747 -2.38096944 5.14120834 0 0 Z " fill="#F9F8F9" transform="translate(170,121)"/>
<path d="M0 0 C2.4375 0.375 2.4375 0.375 5 1 C5.33 1.66 5.66 2.32 6 3 C6.99 2.34 7.98 1.68 9 1 C10.33568021 1.32380126 11.66923011 1.65657551 13 2 C13.66 1.34 14.32 0.68 15 0 C17.5 0.1875 17.5 0.1875 20 1 C22.29013653 4.4352048 22.17842973 5.985331 22 10 C20.68 10 19.36 10 18 10 C18.04125 11.093125 18.0825 12.18625 18.125 13.3125 C18 17 18 17 16 20 C15.01 20 14.02 20 13 20 C13.33 18.35 13.66 16.7 14 15 C11.69 15 9.38 15 7 15 C6.34 13.35 5.68 11.7 5 10 C3.68 13.3 2.36 16.6 1 20 C0.01 20 -0.98 20 -2 20 C-2 18.02 -2 16.04 -2 14 C-2.99 14.33 -3.98 14.66 -5 15 C-5 14.01 -5 13.02 -5 12 C-5.7425 12.515625 -6.485 13.03125 -7.25 13.5625 C-10 15 -10 15 -12.3125 14.6875 C-12.869375 14.460625 -13.42625 14.23375 -14 14 C-13.67 13.34 -13.34 12.68 -13 12 C-12.34 12 -11.68 12 -11 12 C-9.11608215 8.73454239 -8.50712033 5.71888239 -8 2 C-5.03 2.495 -5.03 2.495 -2 3 C-2 3.66 -2 4.32 -2 5 C-1.34 5.33 -0.68 5.66 0 6 C0 4.02 0 2.04 0 0 Z M14 3 C15 7 15 7 15 7 Z " fill="#F7F4F9" transform="translate(231,62)"/>
<path d="M0 0 C-0.66 3.63 -1.32 7.26 -2 11 C-0.68 11 0.64 11 2 11 C1.34 10.01 0.68 9.02 0 8 C0.55555556 2.44444444 0.55555556 2.44444444 2 1 C3.99952758 0.95653201 6.00039988 0.960008 8 1 C10.87199032 1.1491375 10.87199032 1.1491375 13 0.375 C15 0 15 0 18 2 C21.07085835 1.17082878 21.07085835 1.17082878 24 0 C24.66 0 25.32 0 26 0 C25.7215625 1.0828125 25.7215625 1.0828125 25.4375 2.1875 C24.8200209 4.97350204 24.8200209 4.97350204 25.625 7.5625 C26 10 26 10 25.00390625 12.13671875 C22.50492616 14.46033182 20.7396625 14.41601401 17.40429688 14.3515625 C16.36885742 14.30128906 16.36885742 14.30128906 15.3125 14.25 C14.2596582 14.22292969 14.2596582 14.22292969 13.18554688 14.1953125 C11.45644564 14.14826213 9.72804795 14.07651873 8 14 C7.67 13.34 7.34 12.68 7 12 C6.01 12.66 5.02 13.32 4 14 C1.08203125 14.1953125 1.08203125 14.1953125 -2.1875 14.125 C-3.27417969 14.10695313 -4.36085937 14.08890625 -5.48046875 14.0703125 C-6.72763672 14.03550781 -6.72763672 14.03550781 -8 14 C-8 13.01 -8 12.02 -8 11 C-7.34 11 -6.68 11 -6 11 C-5.67 8.69 -5.34 6.38 -5 4 C-5.66 4 -6.32 4 -7 4 C-7 3.01 -7 2.02 -7 1 C-4.50935112 0.31292445 -2.62113708 0 0 0 Z M10 5 C9.67 6.32 9.34 7.64 9 9 C9.99 9 10.98 9 12 9 C12 7.68 12 6.36 12 5 C11.34 5 10.68 5 10 5 Z M17 5 C18 7 18 7 18 7 Z " fill="#F1EBF6" transform="translate(173,31)"/>
<path d="M0 0 C1.875 0.8125 1.875 0.8125 3.875 2.8125 C4 6.4375 4 6.4375 3.875 9.8125 C2.885 10.3075 2.885 10.3075 1.875 10.8125 C4.185 11.1425 6.495 11.4725 8.875 11.8125 C8.689375 10.554375 8.50375 9.29625 8.3125 8 C7.86767239 4.98505732 7.87656154 3.80781539 8.875 0.8125 C12.835 0.8125 16.795 0.8125 20.875 0.8125 C20.84244792 2.66796875 20.80989583 4.5234375 20.77734375 6.37890625 C20.90427795 9.54210663 21.42729588 12.67857117 21.875 15.8125 C11.315 15.8125 0.755 15.8125 -10.125 15.8125 C-10.455 14.4925 -10.785 13.1725 -11.125 11.8125 C-9.145 11.4825 -7.165 11.1525 -5.125 10.8125 C-5.785 10.1525 -6.445 9.4925 -7.125 8.8125 C-6.9768937 5.332002 -6.72180734 3.45046646 -4.3125 0.875 C-2.125 -0.1875 -2.125 -0.1875 0 0 Z M-1.125 5.8125 C-1.455 6.4725 -1.785 7.1325 -2.125 7.8125 C-1.465 7.8125 -0.805 7.8125 -0.125 7.8125 C-0.455 7.1525 -0.785 6.4925 -1.125 5.8125 Z " fill="#F4F2F7" transform="translate(261.125,63.1875)"/>
<path d="M0 0 C2.92658323 4.34450147 2.04024483 9.2658565 1.74609375 14.24414062 C1.62976216 16.60899301 1.62976216 16.60899301 2 20 C3.85010014 22.04588368 3.85010014 22.04588368 6 23 C5.41877889 26.48732669 4.2346975 28.03690856 1.75 30.5 C-4.05533271 36.86560096 -6.35965845 44.94755565 -9 53 C-9.99 53 -10.98 53 -12 53 C-12.99 50.36 -13.98 47.72 -15 45 C-14.01 45 -13.02 45 -12 45 C-12.12375 43.72125 -12.2475 42.4425 -12.375 41.125 C-12.40368803 35.09095115 -9.62958546 30.67165623 -6 26 C-5.01 25.34 -4.02 24.68 -3 24 C-2.34 24.33 -1.68 24.66 -1 25 C-1.144375 24.34773438 -1.28875 23.69546875 -1.4375 23.0234375 C-3.30178487 14.24576291 -3.14107677 8.4135985 0 0 Z " fill="#EDEDED" transform="translate(101,291)"/>
<path d="M0 0 C6.04083328 0.95846206 11.37136335 2.34722142 16.89453125 5 C21.38257908 7.13161455 24.94722291 8.25991455 29.95703125 8.4140625 C31.06884766 8.45273437 32.18066406 8.49140625 33.32617188 8.53125 C35.0519043 8.57765625 35.0519043 8.57765625 36.8125 8.625 C37.98232422 8.66367187 39.15214844 8.70234375 40.35742188 8.7421875 C43.23812564 8.8362513 46.11882654 8.92189877 49 9 C49.66 7.68 50.32 6.36 51 5 C51.66 5 52.32 5 53 5 C53.33 4.34 53.66 3.68 54 3 C54.625 5.8125 54.625 5.8125 55 9 C53 12 53 12 50.546875 12.67578125 C45.7733047 13.11213184 41.04142065 13.18426255 36.25 13.1875 C34.84234375 13.20586914 34.84234375 13.20586914 33.40625 13.22460938 C21.22571484 13.24984529 9.70217459 10.71198493 0 3 C0 2.01 0 1.02 0 0 Z " fill="#ECECEC" transform="translate(208,321)"/>
<path d="M0 0 C0 0.66 0 1.32 0 2 C0.99 2 1.98 2 3 2 C3 2.66 3 3.32 3 4 C3.639375 4.103125 4.27875 4.20625 4.9375 4.3125 C5.618125 4.539375 6.29875 4.76625 7 5 C7.495 6.485 7.495 6.485 8 8 C6.9941687 7.99214478 6.9941687 7.99214478 5.96801758 7.98413086 C2.916188 7.96328395 -0.13562656 7.95031531 -3.1875 7.9375 C-4.24259766 7.92912109 -5.29769531 7.92074219 -6.38476562 7.91210938 C-7.40634766 7.90888672 -8.42792969 7.90566406 -9.48046875 7.90234375 C-10.41785889 7.89710693 -11.35524902 7.89187012 -12.32104492 7.88647461 C-14.98563537 7.99939127 -17.39959478 8.42931292 -20 9 C-27.52792891 9.68640308 -32.51199283 8.91728735 -39 5 C-36.80820581 2.80820581 -35.99552721 2.42716002 -33 2 C-30.7734375 2.41015625 -30.7734375 2.41015625 -28.375 3.0625 C-22.74124179 4.29153364 -18.50809127 3.37495211 -13 2 C-11.00278753 1.6104267 -9.00269528 1.23532849 -7 0.875 C-6.0925 0.70742188 -5.185 0.53984375 -4.25 0.3671875 C-2 0 -2 0 0 0 Z " fill="#DBD9DB" transform="translate(160,311)"/>
<path d="M0 0 C0.66 0.33 1.32 0.66 2 1 C2.02708567 2.60407328 2.04643483 4.2082785 2.0625 5.8125 C2.07410156 6.70582031 2.08570313 7.59914063 2.09765625 8.51953125 C2 11 2 11 1 14 C-10.22 14 -21.44 14 -33 14 C-33.33 13.34 -33.66 12.68 -34 12 C-27.30916221 7.9536362 -22.2277965 7.4863219 -14.5 7.75 C-13.48679688 7.76804687 -12.47359375 7.78609375 -11.4296875 7.8046875 C-8.95211393 7.85143417 -6.47657684 7.91693628 -4 8 C-2.68 5.36 -1.36 2.72 0 0 Z " fill="#E3E1E2" transform="translate(207,334)"/>
<path d="M0 0 C1 3 1 3 0 6 C-0.66 6 -1.32 6 -2 6 C-2.18175781 6.56847656 -2.36351562 7.13695312 -2.55078125 7.72265625 C-3.07693845 9.33890324 -3.62109464 10.94936207 -4.1796875 12.5546875 C-4.85603651 14.57085168 -5.41351192 16.62648023 -5.9375 18.6875 C-10.79020323 26.48123549 -21.74296759 28.8090844 -30.18652344 31.35205078 C-31.80778867 31.84968795 -33.406678 32.41907943 -35 33 C-35.33 33.66 -35.66 34.32 -36 35 C-36.99 34.67 -37.98 34.34 -39 34 C-39 33.01 -39 32.02 -39 31 C-33.97970294 25.97970294 -25.67524556 23.70153318 -19 22 C-18.195625 21.79375 -17.39125 21.5875 -16.5625 21.375 C-16.046875 21.25125 -15.53125 21.1275 -15 21 C-15 20.34 -15 19.68 -15 19 C-14.21625 18.7525 -13.4325 18.505 -12.625 18.25 C-9.51121388 16.7672447 -9.37055029 16.04208417 -8 13 C-7.15326168 11.45424095 -6.2988887 9.91264311 -5.4375 8.375 C-4.25527911 6.26313955 -3.08234999 4.16469998 -2 2 C-1.34 2 -0.68 2 0 2 C0 1.34 0 0.68 0 0 Z " fill="#E4E3E2" transform="translate(259,233)"/>
<path d="M0 0 C0.66 0 1.32 0 2 0 C2 15.84 2 31.68 2 48 C0.35 48.66 -1.3 49.32 -3 50 C-6.38647697 53.591718 -8.63892535 57.69947117 -11 62 C-11.99 61.67 -12.98 61.34 -14 61 C-13.03578548 55.02187 -11.3667134 49.0500701 -8 44 C-5.375 43.8125 -5.375 43.8125 -3 44 C-3 44.66 -3 45.32 -3 46 C-2.01 46 -1.02 46 0 46 C0 30.82 0 15.64 0 0 Z " fill="#EDECEC" transform="translate(179,164)"/>
<path d="M0 0 C0.33 0 0.66 0 1 0 C1.08133791 1.91595968 1.13934367 3.83291932 1.1875 5.75 C1.22230469 6.81734375 1.25710938 7.8846875 1.29296875 8.984375 C1 12 1 12 -0.47485352 13.58447266 C-2.8712976 17.37996133 -2.57369294 21.25733992 -2.6953125 25.6640625 C-2.73308807 26.61131195 -2.77086365 27.5585614 -2.80978394 28.53451538 C-2.92814243 31.56434962 -3.02727095 34.59443651 -3.125 37.625 C-3.23368498 40.63388334 -3.34638422 43.64257605 -3.4616394 46.6512146 C-3.53200235 48.52101952 -3.59798219 50.39099666 -3.65872192 52.26113892 C-3.81183486 56.64601436 -4.01911829 61.02783408 -4.33935547 65.40380859 C-4.39348602 66.19113373 -4.44761658 66.97845886 -4.50338745 67.78964233 C-5.10054056 70.44749291 -6.24951068 71.94467013 -8 74 C-8.02763357 72.64595503 -8.04667422 71.29173445 -8.0625 69.9375 C-8.07410156 69.18339844 -8.08570313 68.42929688 -8.09765625 67.65234375 C-8 65 -8 65 -7.50927734 61.75415039 C-7.03072611 58.22649825 -6.82956869 54.83763923 -6.75390625 51.28125 C-6.72248535 50.02618652 -6.69106445 48.77112305 -6.65869141 47.47802734 C-6.62694824 46.16527832 -6.59520508 44.8525293 -6.5625 43.5 C-5.49150143 5.49150143 -5.49150143 5.49150143 0 0 Z " fill="#F3F3F2" transform="translate(268,159)"/>
<path d="M0 0 C3.41264084 0.23136548 5.64215935 0.7734712 8.6875 2.25 C8.6875 5.22 8.6875 8.19 8.6875 11.25 C8.0275 10.92 7.3675 10.59 6.6875 10.25 C6.6875 8.27 6.6875 6.29 6.6875 4.25 C6.0275 6.56 5.3675 8.87 4.6875 11.25 C4.0275 11.25 3.3675 11.25 2.6875 11.25 C2.3575 12.24 2.0275 13.23 1.6875 14.25 C-0.91492414 15.89820195 -2.17498779 16.25 -5.3125 16.25 C-4.9375 14.3125 -4.9375 14.3125 -4.3125 12.25 C-3.6525 11.92 -2.9925 11.59 -2.3125 11.25 C-3.3025 10.59 -4.2925 9.93 -5.3125 9.25 C-5.625 5.75 -5.625 5.75 -5.3125 2.25 C-3.3125 0.25 -3.3125 0.25 0 0 Z " fill="#EEEAF5" transform="translate(44.3125,63.75)"/>
<path d="M0 0 C1.67293936 0.30027117 3.33985384 0.63557767 5 1 C8.04200046 1 10.99532806 0.44513658 14 0 C13.67 0.99 13.34 1.98 13 3 C11.67696283 3.3721042 10.34262065 3.70630173 9 4 C8.67 4.66 8.34 5.32 8 6 C7.01 6.33 6.02 6.66 5 7 C3.79117904 9.00016466 3.79117904 9.00016466 3 11 C3 10.01 3 9.02 3 8 C2.01 8 1.02 8 0 8 C0 7.01 0 6.02 0 5 C-0.66 5 -1.32 5 -2 5 C-2.33 6.65 -2.66 8.3 -3 10 C-3.5775 9.835 -4.155 9.67 -4.75 9.5 C-7.26664369 8.85537969 -7.26664369 8.85537969 -11 9 C-11.625 6.6875 -11.625 6.6875 -12 4 C-11.34 3.01 -10.68 2.02 -10 1 C-7.0625 0.8125 -7.0625 0.8125 -4 1 C-3.01 1 -2.02 1 -1 1 C-0.67 0.67 -0.34 0.34 0 0 Z " fill="#F9F4FB" transform="translate(185,31)"/>
<path d="M0 0 C12.19673577 -0.39700044 12.19673577 -0.39700044 18 2 C18.33 2.99 18.66 3.98 19 5 C11.08 5.495 11.08 5.495 3 6 C3.33 11.61 3.66 17.22 4 23 C3.34 23 2.68 23 2 23 C1.67 20.03 1.34 17.06 1 14 C0.01 13.67 -0.98 13.34 -2 13 C-2 9.37 -2 5.74 -2 2 C-1.34 2 -0.68 2 0 2 C0 1.34 0 0.68 0 0 Z " fill="#F2F2F1" transform="translate(99,243)"/>
<path d="M0 0 C0.5625 1.9375 0.5625 1.9375 1 4 C-1.53727633 6.53727633 -8.46486756 5.23433923 -11.875 5.25 C-12.99003906 5.270625 -14.10507812 5.29125 -15.25390625 5.3125 C-16.32253906 5.31765625 -17.39117187 5.3228125 -18.4921875 5.328125 C-19.96727783 5.34214355 -19.96727783 5.34214355 -21.47216797 5.35644531 C-24.36710835 4.94823467 -25.23046997 4.26517786 -27 2 C-26.34 2 -25.68 2 -25 2 C-25 1.34 -25 0.68 -25 0 C-7.70497804 -2.30600293 -7.70497804 -2.30600293 0 0 Z " fill="#E0DFE0" transform="translate(67,116)"/>
<path d="M0 0 C5.91406577 0.03294744 11.01295213 0.55491244 16.6796875 2.265625 C16.6796875 3.585625 16.6796875 4.905625 16.6796875 6.265625 C11.3996875 6.265625 6.1196875 6.265625 0.6796875 6.265625 C0.6796875 7.915625 0.6796875 9.565625 0.6796875 11.265625 C1.3396875 11.265625 1.9996875 11.265625 2.6796875 11.265625 C2.6796875 11.925625 2.6796875 12.585625 2.6796875 13.265625 C1.0296875 12.935625 -0.6203125 12.605625 -2.3203125 12.265625 C-2.6503125 9.955625 -2.9803125 7.645625 -3.3203125 5.265625 C-3.9803125 6.255625 -4.6403125 7.245625 -5.3203125 8.265625 C-4.30649172 0.49299905 -4.30649172 0.49299905 0 0 Z " fill="#ECEBEB" transform="translate(87.3203125,113.734375)"/>
<path d="M0 0 C3.3 0 6.6 0 10 0 C8 2 8 2 2 3 C1.34 17.52 0.68 32.04 0 47 C-0.99 47.495 -0.99 47.495 -2 48 C-2.33 33.48 -2.66 18.96 -3 4 C-2.34 4 -1.68 4 -1 4 C-0.67 2.68 -0.34 1.36 0 0 Z " fill="#ECECE9" transform="translate(87,154)"/>
<path d="M0 0 C2 1 2 1 2.62109375 2.734375 C3.04706889 5.28144284 3.09646629 7.66856169 3.0625 10.25 C3.05347656 11.14203125 3.04445312 12.0340625 3.03515625 12.953125 C3.02355469 13.62859375 3.01195312 14.3040625 3 15 C-4.9223301 16.39805825 -4.9223301 16.39805825 -9 15 C-9.66 14.01 -10.32 13.02 -11 12 C-10.45730469 11.55269531 -9.91460937 11.10539062 -9.35546875 10.64453125 C-5.51120516 7.39595535 -2.23667322 4.61313852 0 0 Z " fill="#ECEBEC" transform="translate(252,292)"/>
<path d="M0 0 C0.99 0.33 1.98 0.66 3 1 C2.608125 1.9075 2.21625 2.815 1.8125 3.75 C0.34409707 7.18326591 -1.11383817 10.62085667 -2.5625 14.0625 C-2.97628906 15.04347656 -3.39007813 16.02445312 -3.81640625 17.03515625 C-4.99685278 19.99211637 -6.02313288 22.97036141 -7 26 C-9.60018816 22.09971775 -9.15085514 18.52565431 -9 14 C-8.34 14 -7.68 14 -7 14 C-6.9175 12.96875 -6.835 11.9375 -6.75 10.875 C-5.93408829 6.65945618 -4.63270499 4.35071544 -2 1 C-1.34 0.67 -0.68 0.34 0 0 Z " fill="#D1D0CE" transform="translate(99,318)"/>
<path d="M0 0 C0.68513672 0.00773438 1.37027344 0.01546875 2.07617188 0.0234375 C2.75744141 0.01570312 3.43871094 0.00796875 4.140625 0 C7.8527663 0.01454316 9.4745656 0.16403332 12.63867188 2.2734375 C12.63867188 2.9334375 12.63867188 3.5934375 12.63867188 4.2734375 C10.51374527 4.44103734 8.38872812 4.60748951 6.26367188 4.7734375 C4.48863281 4.91265625 4.48863281 4.91265625 2.67773438 5.0546875 C1.00080344 5.17539204 -0.68005868 5.2734375 -2.36132812 5.2734375 C-2.03132813 7.9134375 -1.70132813 10.5534375 -1.36132812 13.2734375 C-4.37539257 10.64579158 -6.15663087 8.96940815 -7.29882812 5.0859375 C-7.31945313 4.1578125 -7.34007812 3.2296875 -7.36132812 2.2734375 C-4.8781341 -0.20975652 -3.39466766 0.01332549 0 0 Z " fill="#F0F0EE" transform="translate(68.361328125,243.7265625)"/>
<path d="M0 0 C1.32 0 2.64 0 4 0 C6.125 4.625 6.125 4.625 5 8 C4.34 6.35 3.68 4.7 3 3 C2.34 3 1.68 3 1 3 C-0.65674855 8.79861993 -1.19299935 14.22821258 -1.1875 20.25 C-1.18814453 20.93513672 -1.18878906 21.62027344 -1.18945312 22.32617188 C-1.15001779 26.00082817 -0.8656773 29.4264841 0 33 C-0.66 33 -1.32 33 -2 33 C-6.32705328 22.56871085 -5.82487509 13.64377966 -1.9375 3.125 C-1 1 -1 1 0 0 Z " fill="#DFDFDF" transform="translate(117,171)"/>
<path d="M0 0 C0.66 0.66 1.32 1.32 2 2 C1.625 5.125 1.625 5.125 1 8 C-5.0615263 10.13540594 -10.54876694 10.23853866 -16.9375 10.125 C-17.90751953 10.11597656 -18.87753906 10.10695313 -19.87695312 10.09765625 C-22.25156407 10.07426107 -24.62564776 10.04148176 -27 10 C-26.360625 9.690625 -25.72125 9.38125 -25.0625 9.0625 C-23.06389179 8.1654837 -23.06389179 8.1654837 -22 7 C-20.65984779 6.84417697 -19.31241097 6.74955858 -17.96484375 6.68359375 C-17.15595703 6.64169922 -16.34707031 6.59980469 -15.51367188 6.55664062 C-14.2384668 6.49766602 -14.2384668 6.49766602 -12.9375 6.4375 C-12.08349609 6.39431641 -11.22949219 6.35113281 -10.34960938 6.30664062 C-8.23327963 6.20023298 -6.11666187 6.09958269 -4 6 C-3.34 4.68 -2.68 3.36 -2 2 C-1.34 2 -0.68 2 0 2 C0 1.34 0 0.68 0 0 Z " fill="#D2C6D0" transform="translate(261,324)"/>
<path d="M0 0 C0 0.66 0 1.32 0 2 C1.65 2 3.3 2 5 2 C5 2.99 5 3.98 5 5 C3.02 5 1.04 5 -1 5 C-0.01 5.99 0.98 6.98 2 8 C1.375 9.9375 1.375 9.9375 0 12 C-5.18918919 13.40540541 -5.18918919 13.40540541 -8 12 C-8 4 -8 4 -6.25 1.9375 C-4 0 -4 0 0 0 Z " fill="#FAF8FB" transform="translate(106,69)"/>
<path d="M0 0 C0.33 0 0.66 0 1 0 C1.16855843 6.45937327 1.32838584 12.91892051 1.48217773 19.37866211 C1.53550981 21.57565184 1.59083207 23.7725942 1.64819336 25.96948242 C1.7303498 29.12929066 1.80532111 32.28920071 1.87890625 35.44921875 C1.90594131 36.42960617 1.93297638 37.40999359 1.96083069 38.42008972 C1.98092697 39.34066666 2.00102325 40.26124359 2.02172852 41.2097168 C2.04171402 42.0157988 2.06169952 42.8218808 2.08229065 43.65238953 C1.99324257 46.19277774 1.56095485 48.52439344 1 51 C0.34 50.67 -0.32 50.34 -1 50 C-2.34576311 44.30559152 -2.10556544 38.23410639 -1.9140625 32.421875 C-1.89282318 31.64741028 -1.87158386 30.87294556 -1.84970093 30.07501221 C-1.80385088 28.45486812 -1.75496383 26.83480728 -1.703125 25.21484375 C-1.62475759 22.74235203 -1.55777802 20.26973531 -1.4921875 17.796875 C-1.44598319 16.21352195 -1.39913099 14.63018765 -1.3515625 13.046875 C-1.33171295 12.31345886 -1.3118634 11.58004272 -1.29141235 10.82440186 C-1.16709335 7.11557848 -0.86470033 3.61248656 0 0 Z " fill="#F0EFEE" transform="translate(194,273)"/>
<path d="M0 0 C2.9719385 1.12451727 5.33440687 2.22293791 8 4 C7.67 6.31 7.34 8.62 7 11 C4.36 11.33 1.72 11.66 -1 12 C-1 11.34 -1 10.68 -1 10 C-1.66 10 -2.32 10 -3 10 C-3.625 7.6875 -3.625 7.6875 -4 5 C-3.34 4.01 -2.68 3.02 -2 2 C-1.34 2 -0.68 2 0 2 C0 1.34 0 0.68 0 0 Z " fill="#EFECF4" transform="translate(204,63)"/>
<path d="M0 0 C1.67542976 0.28604898 3.34385343 0.61781233 5 1 C4.67 4.3 4.34 7.6 4 11 C3.01 11 2.02 11 1 11 C1 9.35 1 7.7 1 6 C-0.32 6 -1.64 6 -3 6 C-3 6.66 -3 7.32 -3 8 C-5.64 8 -8.28 8 -11 8 C-9.68 5.69 -8.36 3.38 -7 1 C-6.195625 1.185625 -5.39125 1.37125 -4.5625 1.5625 C-3.716875 1.706875 -2.87125 1.85125 -2 2 C-1.67 1.67 -1.34 1.34 -1 1 C-0.67 0.67 -0.34 0.34 0 0 Z " fill="#F1ECF4" transform="translate(87,62)"/>
<path d="M0 0 C-0.99 3.96 -1.98 7.92 -3 12 C-2.34 12 -1.68 12 -1 12 C-1.66 13.32 -2.32 14.64 -3 16 C-4.65 16 -6.3 16 -8 16 C-8 13.03152362 -7.85618426 10.36117913 -7.5 7.4375 C-7.19282343 4.90755966 -7 2.55605099 -7 0 C-3.98968256 -0.93423645 -3.13349732 -1.04449911 0 0 Z " fill="#EFECF4" transform="translate(162,64)"/>
<path d="M0 0 C0.33 0 0.66 0 1 0 C1.24294538 12.760239 1.01492122 25.44952447 0.1875 38.1875 C0.11740723 39.39825195 0.04731445 40.60900391 -0.02490234 41.85644531 C-0.10562988 42.99049805 -0.18635742 44.12455078 -0.26953125 45.29296875 C-0.33760986 46.2986792 -0.40568848 47.30438965 -0.47583008 48.34057617 C-1.05665079 51.28742295 -2.02842113 52.77225158 -4 55 C-4.18986279 49.58891041 -3.85239249 44.5470668 -3.0625 39.1875 C-1.91158901 30.99939226 -1.35382182 22.81289312 -0.875 14.5625 C-0.78825253 13.13733975 -0.70101483 11.71220926 -0.61328125 10.28710938 C-0.40323792 6.85839506 -0.19970468 3.42933393 0 0 Z " fill="#EBEBEA" transform="translate(264,178)"/>
<path d="M0 0 C-0.61875 0.61875 -1.2375 1.2375 -1.875 1.875 C-7.44097614 10.06025902 -6.00317099 19.59188285 -5 29 C-5.66 29 -6.32 29 -7 29 C-9.56042714 24.11376654 -9.33187824 19.31302356 -9.3125 13.9375 C-9.32861328 13.03966797 -9.34472656 12.14183594 -9.36132812 11.21679688 C-9.36615655 4.72256337 -9.36615655 4.72256337 -7.6796875 1.39453125 C-5.19103505 -0.67162904 -3.11926007 -0.27726756 0 0 Z " fill="#EBEAE8" transform="translate(137,273)"/>
<path d="M0 0 C0.33 0 0.66 0 1 0 C1.02712066 1.43739513 1.04645067 2.87493863 1.0625 4.3125 C1.07410156 5.11300781 1.08570313 5.91351563 1.09765625 6.73828125 C1 9 1 9 0 12 C-5.94 12 -11.88 12 -18 12 C-18 11.34 -18 10.68 -18 10 C-21.96 10 -25.92 10 -30 10 C-30 9.67 -30 9.34 -30 9 C-29.25314941 9.00523682 -28.50629883 9.01047363 -27.73681641 9.01586914 C-24.36621943 9.03660401 -20.99563586 9.04964899 -17.625 9.0625 C-16.449375 9.07087891 -15.27375 9.07925781 -14.0625 9.08789062 C-12.94101563 9.09111328 -11.81953125 9.09433594 -10.6640625 9.09765625 C-9.62717285 9.10289307 -8.5902832 9.10812988 -7.52197266 9.11352539 C-5.0040332 9.17140815 -5.0040332 9.17140815 -3 8 C-2.09656316 6.11736119 -2.09656316 6.11736119 -1.375 3.9375 C-1.11460937 3.20402344 -0.85421875 2.47054688 -0.5859375 1.71484375 C-0.39257812 1.14894531 -0.19921875 0.58304687 0 0 Z " fill="#DBD6DA" transform="translate(208,336)"/>
<path d="M0 0 C-0.66 3.63 -1.32 7.26 -2 11 C-0.35 11.33 1.3 11.66 3 12 C1 14 1 14 -1.1640625 14.1953125 C-2.38222656 14.16050781 -2.38222656 14.16050781 -3.625 14.125 C-4.44226563 14.10695313 -5.25953125 14.08890625 -6.1015625 14.0703125 C-6.72804687 14.04710937 -7.35453125 14.02390625 -8 14 C-8 13.01 -8 12.02 -8 11 C-7.34 11 -6.68 11 -6 11 C-5.67 8.69 -5.34 6.38 -5 4 C-5.66 4 -6.32 4 -7 4 C-7 3.01 -7 2.02 -7 1 C-4.50935112 0.31292445 -2.62113708 0 0 0 Z " fill="#F6F1FA" transform="translate(173,31)"/>
<path d="M0 0 C1.62723299 0.45034123 3.25173664 0.91055354 4.875 1.375 C5.77992188 1.63023437 6.68484375 1.88546875 7.6171875 2.1484375 C10 3 10 3 12 5 C12 5.99 12 6.98 12 8 C13.65 7.67 15.3 7.34 17 7 C18.76462683 10.08809695 19 11.23312136 19 15 C18.34 15 17.68 15 17 15 C16.92007813 14.3709375 16.84015625 13.741875 16.7578125 13.09375 C16.21687658 10.84672227 16.21687658 10.84672227 14.1796875 10.09375 C13.41914063 9.8978125 12.65859375 9.701875 11.875 9.5 C7.43011921 8.21276252 3.93156182 6.4258573 0 4 C0 2.68 0 1.36 0 0 Z " fill="#EBEBEA" transform="translate(221,209)"/>
<path d="M0 0 C1 1 1 1 1.0625 3.3125 C1.041875 4.199375 1.02125 5.08625 1 6 C1 7.32 1 8.64 1 10 C-0.43534841 10.2226746 -1.87345525 10.42761906 -3.3125 10.625 C-4.11300781 10.74101563 -4.91351563 10.85703125 -5.73828125 10.9765625 C-8 11 -8 11 -11 9 C-10.34 8.34 -9.68 7.68 -9 7 C-8.01 7 -7.02 7 -6 7 C-6 6.34 -6 5.68 -6 5 C-6.99 4.34 -7.98 3.68 -9 3 C-9 2.34 -9 1.68 -9 1 C-5.78419562 -0.07193479 -3.36629251 -0.14636054 0 0 Z " fill="#FAF8FB" transform="translate(140,71)"/>
<path d="M0 0 C2.1952513 0.67815752 2.1952513 0.67815752 4.6875 -0.0625 C7.125 -0.5 7.125 -0.5 10.125 1.5 C9.135 2.16 8.145 2.82 7.125 3.5 C5.92049696 6.05183404 5.92049696 6.05183404 5.125 8.5 C3.805 8.5 2.485 8.5 1.125 8.5 C0.465 7.51 -0.195 6.52 -0.875 5.5 C-1.865 5.83 -2.855 6.16 -3.875 6.5 C-4.205 4.52 -4.535 2.54 -4.875 0.5 C-1.875 -0.5 -1.875 -0.5 0 0 Z " fill="#E9E9E8" transform="translate(224.875,305.5)"/>
<path d="M0 0 C0.66 0 1.32 0 2 0 C1.73046875 1.8984375 1.73046875 1.8984375 1 4 C-0.63671875 4.9140625 -0.63671875 4.9140625 -2.6875 5.625 C-7.63163415 7.80858528 -9.35596271 11.28024078 -11.7734375 15.953125 C-12.17820312 16.62859375 -12.58296875 17.3040625 -13 18 C-13.66 18 -14.32 18 -15 18 C-14.9129995 16.37399059 -14.8048219 14.74910322 -14.6875 13.125 C-14.62949219 12.22007812 -14.57148437 11.31515625 -14.51171875 10.3828125 C-14 8 -14 8 -11 6 C-10.01 6 -9.02 6 -8 6 C-8 5.34 -8 4.68 -8 4 C-5.09399739 2.74335022 -3.20395416 2 0 2 C0 1.34 0 0.68 0 0 Z " fill="#DFDEDC" transform="translate(85,206)"/>
<path d="M0 0 C2.4375 0.25 2.4375 0.25 5 1 C7.29013653 4.4352048 7.17842973 5.985331 7 10 C3.12315913 11.19287411 0.08378077 12 -4 12 C-4 11.34 -4 10.68 -4 10 C-2.68 9.67 -1.36 9.34 0 9 C-0.185625 7.700625 -0.37125 6.40125 -0.5625 5.0625 C-0.87890625 2.84765625 -0.87890625 2.84765625 -1 1 C-0.67 0.67 -0.34 0.34 0 0 Z " fill="#EFECF5" transform="translate(246,62)"/>
<path d="M0 0 C1.65 0.33 3.3 0.66 5 1 C4.67 4.3 4.34 7.6 4 11 C4.66 11.33 5.32 11.66 6 12 C4.02 12.99 2.04 13.98 0 15 C-0.0825 14.2575 -0.165 13.515 -0.25 12.75 C-1.1396946 9.48778646 -2.48503749 8.19045122 -5 6 C-3.35 5.34 -1.7 4.68 0 4 C0 2.68 0 1.36 0 0 Z " fill="#EEEAF2" transform="translate(194,62)"/>
<path d="M0 0 C9.9 0.66 19.8 1.32 30 2 C30 2.33 30 2.66 30 3 C29.20335937 3.04898437 28.40671875 3.09796875 27.5859375 3.1484375 C21.10141516 3.52763784 21.10141516 3.52763784 14.875 5.1875 C9.56260826 6.6888281 4.12201006 4.70733669 -1 3 C-0.67 2.01 -0.34 1.02 0 0 Z " fill="#E2E3E1" transform="translate(221,328)"/>
<path d="M0 0 C1.37478516 0.01740234 1.37478516 0.01740234 2.77734375 0.03515625 C3.69644531 0.04417969 4.61554688 0.05320313 5.5625 0.0625 C6.27277344 0.07410156 6.98304688 0.08570313 7.71484375 0.09765625 C8.81143311 3.38742433 8.51437513 4.81069392 7.71484375 8.09765625 C6.06977157 8.29172103 4.42374781 8.4777356 2.77734375 8.66015625 C1.40255859 8.81677734 1.40255859 8.81677734 0 8.9765625 C-0.75410156 9.01652344 -1.50820312 9.05648437 -2.28515625 9.09765625 C-3.28515625 8.09765625 -3.28515625 8.09765625 -3.41015625 4.59765625 C-3.25091596 0.13892803 -3.25091596 0.13892803 0 0 Z " fill="#FDFBFD" transform="translate(133.28515625,61.90234375)"/>
<path d="M0 0 C3.01118091 4.51677137 3.55350724 9.10792467 2.53125 14.44921875 C1.17836032 18.89757883 -0.26031543 22.03404327 -4 25 C-3.35455571 21.51460083 -1.89865603 18.97180943 0 16 C-1.05270463 14.84188612 -1.05270463 14.84188612 -3 14 C-2.69024532 12.22868439 -2.37709575 10.45796222 -2.0625 8.6875 C-1.88847656 7.70136719 -1.71445313 6.71523437 -1.53515625 5.69921875 C-1 3 -1 3 0 0 Z " fill="#EBE9EA" transform="translate(114,109)"/>
<path d="M0 0 C0 1.65 0 3.3 0 5 C-0.85464844 5.26554687 -1.70929688 5.53109375 -2.58984375 5.8046875 C-3.69457031 6.15789062 -4.79929688 6.51109375 -5.9375 6.875 C-7.03964844 7.22304688 -8.14179688 7.57109375 -9.27734375 7.9296875 C-12.12878804 8.70024295 -12.12878804 8.70024295 -13 11 C-13.99 10.67 -14.98 10.34 -16 10 C-16 9.01 -16 8.02 -16 7 C-12.11634098 3.11634098 -5.47265623 0 0 0 Z " fill="#EDEBEC" transform="translate(236,257)"/>
<path d="M0 0 C3.78882919 6.66414621 1.92748151 14.69608309 1 22 C0.01 21.67 -0.98 21.34 -2 21 C-3.09141544 13.22859609 -3.23540512 7.2385335 0 0 Z " fill="#E7E7E4" transform="translate(101,291)"/>
<path d="M0 0 C0.33 0.66 0.66 1.32 1 2 C0.67 2.66 0.34 3.32 0 4 C0.66 4.33 1.32 4.66 2 5 C-0.76289636 10.39646566 -3.31464424 15.07443166 -8 19 C-8.66 19 -9.32 19 -10 19 C-9.37364229 14.36495293 -9.37364229 14.36495293 -7.65625 12.6875 C-5.48286994 10.47311277 -4.26162427 8.04973472 -2.8125 5.3125 C-2.28269531 4.31863281 -1.75289063 3.32476562 -1.20703125 2.30078125 C-0.80871094 1.54152344 -0.41039062 0.78226563 0 0 Z " fill="#D8D6D4" transform="translate(262,234)"/>
<path d="M0 0 C1.37478516 0.01740234 1.37478516 0.01740234 2.77734375 0.03515625 C3.69644531 0.04417969 4.61554688 0.05320313 5.5625 0.0625 C6.27277344 0.07410156 6.98304687 0.08570313 7.71484375 0.09765625 C5.71484375 2.09765625 5.71484375 2.09765625 -0.28515625 3.09765625 C-0.61515625 11.01765625 -0.94515625 18.93765625 -1.28515625 27.09765625 C-1.94515625 26.76765625 -2.60515625 26.43765625 -3.28515625 26.09765625 C-3.31402376 21.95183738 -3.33190952 17.80604409 -3.34765625 13.66015625 C-3.35603516 12.47615234 -3.36441406 11.29214844 -3.37304688 10.07226562 C-3.37626953 8.94755859 -3.37949219 7.82285156 -3.3828125 6.6640625 C-3.38804932 5.62193604 -3.39328613 4.57980957 -3.39868164 3.50610352 C-3.24926371 0.33619402 -3.1657642 0.13528907 0 0 Z " fill="#DCD8D9" transform="translate(89.28515625,153.90234375)"/>
<path d="M0 0 C-0.33 0.33 -0.66 0.66 -1 1 C1.97 1.495 1.97 1.495 5 2 C5 2.99 5 3.98 5 5 C2.75026553 5.054138 0.50015617 5.09285491 -1.75 5.125 C-3.00296875 5.14820313 -4.2559375 5.17140625 -5.546875 5.1953125 C-8.79640442 5.01151559 -10.26128478 4.57222541 -13 3 C-15.19747131 3.29805007 -15.19747131 3.29805007 -17 4 C-17.33 3.01 -17.66 2.02 -18 1 C-17.15695313 0.93941406 -16.31390625 0.87882812 -15.4453125 0.81640625 C-14.34960938 0.73261719 -13.25390625 0.64882813 -12.125 0.5625 C-11.03445312 0.48128906 -9.94390625 0.40007812 -8.8203125 0.31640625 C-1.63306452 -0.48991935 -1.63306452 -0.48991935 0 0 Z " fill="#F4F3F2" transform="translate(243,303)"/>
<path d="M0 0 C0.66 0.66 1.32 1.32 2 2 C1.4375 4.3125 1.4375 4.3125 0 7 C-2.31254012 8.04718798 -4.6485148 9.04346365 -7 10 C-9.75041666 12.41666771 -9.75041666 12.41666771 -12 15 C-13 16 -14 17 -15 18 C-15.34338883 14.3085701 -15.27811415 12.45322305 -13.3125 9.25 C-9.89262695 5.92255595 -7.43541489 5.0541666 -2.6875 4.875 C-1.800625 4.91625 -0.91375 4.9575 0 5 C0 3.35 0 1.7 0 0 Z " fill="#EAE9E8" transform="translate(208,187)"/>
<path d="M0 0 C1.32 0.33 2.64 0.66 4 1 C3.67 2.98 3.34 4.96 3 7 C3.99 7.33 4.98 7.66 6 8 C6 7.34 6 6.68 6 6 C6.66 6 7.32 6 8 6 C7.49396008 8.16874252 7.00016187 9.99967627 6 12 C3.69 11.67 1.38 11.34 -1 11 C-1.33 8.69 -1.66 6.38 -2 4 C-1.34 4 -0.68 4 0 4 C0 2.68 0 1.36 0 0 Z " fill="#FBF8FC" transform="translate(145,33)"/>
<path d="M0 0 C0.66 0.66 1.32 1.32 2 2 C0.68 4.97 -0.64 7.94 -2 11 C-14.87 10.505 -14.87 10.505 -28 10 C-26 8 -26 8 -23.75341797 7.77294922 C-22.84221191 7.78342285 -21.93100586 7.79389648 -20.9921875 7.8046875 C-19.51298828 7.81435547 -19.51298828 7.81435547 -18.00390625 7.82421875 C-16.45509766 7.84935547 -16.45509766 7.84935547 -14.875 7.875 C-13.83472656 7.88402344 -12.79445312 7.89304687 -11.72265625 7.90234375 C-9.14820908 7.92596253 -6.57421788 7.95889851 -4 8 C-2.68 5.36 -1.36 2.72 0 0 Z " fill="#EFEFEF" transform="translate(207,334)"/>
<path d="M0 0 C0.33 1.32 0.66 2.64 1 4 C-5.46794133 5.51233701 -11.35590042 6.21432579 -18 6 C-18 5.01 -18 4.02 -18 3 C-16.948125 3.061875 -15.89625 3.12375 -14.8125 3.1875 C-9.10973393 2.9070361 -5.99005007 -0.41791047 0 0 Z " fill="#E5E5E7" transform="translate(132,214)"/>
<path d="M0 0 C0 0.66 0 1.32 0 2 C0.99 2 1.98 2 3 2 C3 2.66 3 3.32 3 4 C3.639375 4.103125 4.27875 4.20625 4.9375 4.3125 C5.618125 4.539375 6.29875 4.76625 7 5 C7.33 5.99 7.66 6.98 8 8 C6.35 8 4.7 8 3 8 C3.33 7.01 3.66 6.02 4 5 C1.60429729 4.8312461 -0.79153363 4.66493164 -3.1875 4.5 C-4.19780273 4.42845703 -4.19780273 4.42845703 -5.22851562 4.35546875 C-8.82636752 4.10976179 -12.39372306 3.94398016 -16 4 C-12.88475523 1.92317015 -11.06898061 1.48427637 -7.4375 0.875 C-6.46683594 0.70742188 -5.49617187 0.53984375 -4.49609375 0.3671875 C-2 0 -2 0 0 0 Z " fill="#EBEBEA" transform="translate(160,311)"/>
<path d="M0 0 C0 0.66 0 1.32 0 2 C-7.3197277 3.86094772 -14.46783285 4.55761615 -22 5 C-21.34 4.67 -20.68 4.34 -20 4 C-20 3.34 -20 2.68 -20 2 C-17.79248152 1.66131223 -15.58394089 1.32928311 -13.375 1 C-12.14523438 0.814375 -10.91546875 0.62875 -9.6484375 0.4375 C-6.3833973 0.04597484 -3.28287549 -0.08080924 0 0 Z " fill="#E0DEDD" transform="translate(124,149)"/>
<path d="M0 0 C2.475 0.99 2.475 0.99 5 2 C4.74609375 3.86328125 4.74609375 3.86328125 4 6 C2.22265625 7.23046875 2.22265625 7.23046875 0.0625 8.1875 C-1.00291016 8.67283203 -1.00291016 8.67283203 -2.08984375 9.16796875 C-2.72019531 9.44253906 -3.35054688 9.71710938 -4 10 C-4.99 10.495 -4.99 10.495 -6 11 C-5.67 8.69 -5.34 6.38 -5 4 C-3.35 3.34 -1.7 2.68 0 2 C0 1.34 0 0.68 0 0 Z " fill="#DDDCDC" transform="translate(92,126)"/>
<path d="M0 0 C2.97 0.495 2.97 0.495 6 1 C5.814375 1.53625 5.62875 2.0725 5.4375 2.625 C4.88580676 5.61990614 5.39402556 8.03745829 6 11 C5.34 11 4.68 11 4 11 C3.67 10.01 3.34 9.02 3 8 C2.01 7.67 1.02 7.34 0 7 C-0.33 7.99 -0.66 8.98 -1 10 C-2.46726798 6.18510326 -1.43336419 3.70988378 0 0 Z " fill="#FDF9FD" transform="translate(120,32)"/>
<path d="M0 0 C1.65 0.33 3.3 0.66 5 1 C4.360625 1.309375 3.72125 1.61875 3.0625 1.9375 C1.06389179 2.8345163 1.06389179 2.8345163 0 4 C1.65 4 3.3 4 5 4 C4.67 5.65 4.34 7.3 4 9 C1.36 8.67 -1.28 8.34 -4 8 C-4 8.66 -4 9.32 -4 10 C-4.66 10 -5.32 10 -6 10 C-5.67 8.35 -5.34 6.7 -5 5 C-4.34 5 -3.68 5 -3 5 C-2.67 3.68 -2.34 2.36 -2 1 C-1.34 1.33 -0.68 1.66 0 2 C0 1.34 0 0.68 0 0 Z " fill="#FDFAFD" transform="translate(190,65)"/>
<path d="M0 0 C0.66 0.66 1.32 1.32 2 2 C1.43181818 7.56818182 1.43181818 7.56818182 0 9 C-1.69141656 8.91036938 -3.37959602 8.75422324 -5.0625 8.5625 C-5.98160156 8.46066406 -6.90070313 8.35882813 -7.84765625 8.25390625 C-8.55792969 8.17011719 -9.26820313 8.08632813 -10 8 C-9.67 7.34 -9.34 6.68 -9 6 C-7.35 6 -5.7 6 -4 6 C-3.34 4.68 -2.68 3.36 -2 2 C-1.34 2 -0.68 2 0 2 C0 1.34 0 0.68 0 0 Z " fill="#D7D6D9" transform="translate(261,324)"/>
<path d="M0 0 C0.99 0.33 1.98 0.66 3 1 C3.6875 3.0625 3.6875 3.0625 4 5 C3.21625 5.226875 2.4325 5.45375 1.625 5.6875 C-1.19354704 6.7773745 -1.19354704 6.7773745 -2.3125 9.5 C-3.08838549 11.88926704 -3.08838549 11.88926704 -3 14 C-3.99 14.33 -4.98 14.66 -6 15 C-5.53199289 10.94393835 -5.12046792 7.53411321 -3 4 C-3.66 3.67 -4.32 3.34 -5 3 C-2.6875 1.4375 -2.6875 1.4375 0 0 Z " fill="#EAEAE9" transform="translate(227,282)"/>
<path d="M0 0 C0 3.3 0 6.6 0 10 C0.66 10.33 1.32 10.66 2 11 C1.67 11.99 1.34 12.98 1 14 C-0.9375 13.625 -0.9375 13.625 -3 13 C-4.17051429 10.65897141 -4.1992246 9.10647047 -4.25 6.5 C-4.27578125 5.7059375 -4.3015625 4.911875 -4.328125 4.09375 C-4.21984375 3.4028125 -4.1115625 2.711875 -4 2 C-1 0 -1 0 0 0 Z " fill="#FBF9FD" transform="translate(166,66)"/>
<path d="M0 0 C1.39412109 0.28810547 1.39412109 0.28810547 2.81640625 0.58203125 C5.0303663 1.09345272 7.23653734 1.62301781 9.4375 2.1875 C-1.96987489 4.75817603 -1.96987489 4.75817603 -7.5625 4.1875 C-9.5 2.6875 -9.5 2.6875 -10.5625 1.1875 C-6.618298 -0.7380723 -4.27020995 -0.92055986 0 0 Z " fill="#E5E4E6" transform="translate(131.5625,313.8125)"/>
<path d="M0 0 C0.66 0 1.32 0 2 0 C2 2.97 2 5.94 2 9 C-2.3164922 9.76173392 -5.74433453 10.16063604 -10 9 C-10 8.67 -10 8.34 -10 8 C-8.906875 7.79375 -7.81375 7.5875 -6.6875 7.375 C-2.7714341 6.34336062 -2.7714341 6.34336062 -1.0625 2.875 C-0.711875 1.92625 -0.36125 0.9775 0 0 Z " fill="#DAD9DB" transform="translate(253,298)"/>
<path d="M0 0 C-0.33 0.66 -0.66 1.32 -1 2 C-2.33333333 2.33333333 -3.66666667 2.66666667 -5 3 C-5.33 3.66 -5.66 4.32 -6 5 C-6.99 5.33 -7.98 5.66 -9 6 C-10.20882096 8.00016466 -10.20882096 8.00016466 -11 10 C-11 9.01 -11 8.02 -11 7 C-11.99 7 -12.98 7 -14 7 C-13.625 5.0625 -13.625 5.0625 -13 3 C-12.34 2.67 -11.68 2.34 -11 2 C-10.01 2.33 -9.02 2.66 -8 3 C-7.67 2.01 -7.34 1.02 -7 0 C-3.86650268 -1.04449911 -3.01031744 -0.93423645 0 0 Z " fill="#FCFAFC" transform="translate(199,32)"/>
<path d="M0 0 C0 0.66 0 1.32 0 2 C0.99 2 1.98 2 3 2 C2.67 5.3 2.34 8.6 2 12 C0.68 12.33 -0.64 12.66 -2 13 C-1.01 10.69 -0.02 8.38 1 6 C0.01 6 -0.98 6 -2 6 C-2 5.34 -2 4.68 -2 4 C-2.99 3.67 -3.98 3.34 -5 3 C-5.33 2.34 -5.66 1.68 -6 1 C-4 0 -4 0 0 0 Z " fill="#EEE6F2" transform="translate(153,31)"/>
<path d="M0 0 C0.99 0.33 1.98 0.66 3 1 C2.67 1.33 2.34 1.66 2 2 C2.66 2.33 3.32 2.66 4 3 C4 6.3 4 9.6 4 13 C0.98593556 10.37235408 -0.79530275 8.69597065 -1.9375 4.8125 C-1.958125 3.884375 -1.97875 2.95625 -2 2 C-1.34 1.34 -0.68 0.68 0 0 Z " fill="#F0F0EE" transform="translate(63,244)"/>
<path d="M0 0 C1.98 0 3.96 0 6 0 C6 2 6 4 6 6 C6.66 6.66 7.32 7.32 8 8 C5.36 8 2.72 8 0 8 C0 5.36 0 2.72 0 0 Z " fill="#EFEDF8" transform="translate(186,73)"/>
<path d="M0 0 C1.32 0.33 2.64 0.66 4 1 C4 6.94 4 12.88 4 19 C3.34 19 2.68 19 2 19 C1.90912109 18.11248047 1.90912109 18.11248047 1.81640625 17.20703125 C1.28722173 12.20476334 1.28722173 12.20476334 0.4375 7.25 C-0.04117353 4.78825041 -0.0714775 2.50171249 0 0 Z " fill="#DCDCDC" transform="translate(99,247)"/>
<path d="M0 0 C1.48831242 0.00667405 2.97660807 0.01863442 4.46484375 0.03515625 C5.22345703 0.03966797 5.98207031 0.04417969 6.76367188 0.04882812 C8.64326246 0.06064945 10.52281274 0.07858547 12.40234375 0.09765625 C12.73234375 1.08765625 13.06234375 2.07765625 13.40234375 3.09765625 C12.27054688 3.14664063 11.13875 3.195625 9.97265625 3.24609375 C8.49086036 3.32112139 7.00909075 3.39666922 5.52734375 3.47265625 C4.78097656 3.50359375 4.03460938 3.53453125 3.265625 3.56640625 C-1.13238813 3.65409456 -1.13238813 3.65409456 -4.59765625 6.09765625 C-4.64037725 4.4315372 -4.63829457 2.7638274 -4.59765625 1.09765625 C-3.59765625 0.09765625 -3.59765625 0.09765625 0 0 Z " fill="#DDDEDB" transform="translate(90.59765625,116.90234375)"/>
<path d="M0 0 C1 2 1 2 0.9375 4.4375 C0.77767869 7.24528606 0.77767869 7.24528606 3 10 C3.99 9.34 4.98 8.68 6 8 C6 8.99 6 9.98 6 11 C4.02 11.66 2.04 12.32 0 13 C-1.546875 11.7890625 -1.546875 11.7890625 -3 10 C-2.890625 7.7734375 -2.890625 7.7734375 -2.25 5.375 C-2.04890625 4.57835938 -1.8478125 3.78171875 -1.640625 2.9609375 C-1 1 -1 1 0 0 Z " fill="#FBF9FD" transform="translate(51,67)"/>
<path d="M0 0 C2.99329122 1.23253168 4.26881368 3.28959763 6.125 5.875 C5.135 6.535 4.145 7.195 3.125 7.875 C1.805 6.885 0.485 5.895 -0.875 4.875 C-1.205 6.195 -1.535 7.515 -1.875 8.875 C-1.875 7.225 -1.875 5.575 -1.875 3.875 C-2.535 3.875 -3.195 3.875 -3.875 3.875 C-3.875 2.885 -3.875 1.895 -3.875 0.875 C-1.875 -0.125 -1.875 -0.125 0 0 Z " fill="#E7E7E8" transform="translate(209.875,144.125)"/>
<path d="M0 0 C0.33 0 0.66 0 1 0 C1.10841951 1.91541138 1.18578079 3.83259773 1.25 5.75 C1.29640625 6.81734375 1.3428125 7.8846875 1.390625 8.984375 C0.91735478 12.63802112 -0.19155042 13.72228105 -3 16 C-2.88590318 13.89521396 -2.75834639 11.79115423 -2.625 9.6875 C-2.55539062 8.51574219 -2.48578125 7.34398437 -2.4140625 6.13671875 C-2 3 -2 3 0 0 Z " fill="#EDEDEB" transform="translate(268,159)"/>
<path d="M0 0 C0.89203125 0.03609375 1.7840625 0.0721875 2.703125 0.109375 C3.71632812 0.17898437 3.71632812 0.17898437 4.75 0.25 C4.75 0.91 4.75 1.57 4.75 2.25 C5.41 2.58 6.07 2.91 6.75 3.25 C3.74686252 4.75156874 0.95932478 4.34281204 -2.375 4.3125 C-3.65632812 4.30347656 -4.93765625 4.29445312 -6.2578125 4.28515625 C-7.73894531 4.26775391 -7.73894531 4.26775391 -9.25 4.25 C-6.25595527 0.69632074 -4.64721574 -0.2445903 0 0 Z " fill="#E7E6E7" transform="translate(171.25,150.75)"/>
<path d="M0 0 C4.29 0 8.58 0 13 0 C12.01 0.495 12.01 0.495 11 1 C11.33 1.99 11.66 2.98 12 4 C10.35 4 8.7 4 7 4 C7 4.66 7 5.32 7 6 C4.84493378 4.92246689 3.65885192 3.72797075 2 2 C1.34 1.34 0.68 0.68 0 0 Z " fill="#DCD0EE" transform="translate(122,31)"/>
<path d="M0 0 C2.21628333 3.32442499 2.38958598 4.95816319 2.6875 8.875 C2.77386719 9.90367187 2.86023438 10.93234375 2.94921875 11.9921875 C2.99740501 14.84629667 2.6779063 17.23740442 2 20 C1.34 19.67 0.68 19.34 0 19 C-1.14175963 12.46083122 -0.88950071 6.55493602 0 0 Z " fill="#E9E8E6" transform="translate(193,304)"/>
<path d="M0 0 C0 3.86790003 -0.27370354 5.01319413 -2 8.25 C-2.37125 8.95640625 -2.7425 9.6628125 -3.125 10.390625 C-3.41375 10.92171875 -3.7025 11.4528125 -4 12 C-4.66 12 -5.32 12 -6 12 C-5.9129995 10.37399059 -5.8048219 8.74910322 -5.6875 7.125 C-5.62949219 6.22007812 -5.57148437 5.31515625 -5.51171875 4.3828125 C-4.81887225 1.15658073 -3.34638587 0 0 0 Z " fill="#E9E2E7" transform="translate(76,212)"/>
<path d="M0 0 C0.66 0.99 1.32 1.98 2 3 C0.42720641 5.90361893 -0.29033725 7.22809817 -3 9 C-7.70443743 9.54343445 -12.28433247 9.34458193 -17 9 C-17 8.67 -17 8.34 -17 8 C-16.10796875 7.92523438 -15.2159375 7.85046875 -14.296875 7.7734375 C-7.8386863 7.32462549 -7.8386863 7.32462549 -2.24609375 4.53125 C-1.03336839 2.7409672 -1.03336839 2.7409672 0 0 Z " fill="#EEEDF0" transform="translate(260,321)"/>
<path d="M0 0 C0 0.66 0 1.32 0 2 C0.66 2.33 1.32 2.66 2 3 C0.56465159 3.2226746 -0.87345525 3.42761906 -2.3125 3.625 C-3.11300781 3.74101562 -3.91351563 3.85703125 -4.73828125 3.9765625 C-7 4 -7 4 -10 2 C-10 1.34 -10 0.68 -10 0 C-6.30581799 -1.231394 -3.7943739 -0.64432764 0 0 Z " fill="#E9E8E6" transform="translate(110,245)"/>
<path d="M0 0 C0.33 0.66 0.66 1.32 1 2 C2.98 2 4.96 2 7 2 C6.67 2.66 6.34 3.32 6 4 C4.68 4 3.36 4 2 4 C2 4.66 2 5.32 2 6 C2.66 6.33 3.32 6.66 4 7 C2.02 7.99 2.02 7.99 0 9 C-0.66 6.69 -1.32 4.38 -2 2 C-1.34 1.34 -0.68 0.68 0 0 Z " fill="#FDFCFD" transform="translate(271,67)"/>
<path d="M0 0 C-0.33 2.31 -0.66 4.62 -1 7 C-2.65 7.33 -4.3 7.66 -6 8 C-5.67 6.68 -5.34 5.36 -5 4 C-5.66 4 -6.32 4 -7 4 C-7 3.01 -7 2.02 -7 1 C-4.50935112 0.31292445 -2.62113708 0 0 0 Z " fill="#ECE7F2" transform="translate(173,31)"/>
<path d="M0 0 C0.34548714 6.33393082 -0.70657253 11.10261508 -3 17 C-3.33 17 -3.66 17 -4 17 C-4.11083416 11.56912592 -4.11115605 6.33354906 -3 1 C-1 0 -1 0 0 0 Z " fill="#E2E2E1" transform="translate(268,183)"/>
<path d="M0 0 C-0.99 0.495 -0.99 0.495 -2 1 C-2 1.66 -2 2.32 -2 3 C-2.66 3 -3.32 3 -4 3 C-3.79375 3.556875 -3.5875 4.11375 -3.375 4.6875 C-2.89304789 7.659538 -3.73434972 9.31979941 -5 12 C-3.68 11.67 -2.36 11.34 -1 11 C-1 11.66 -1 12.32 -1 13 C-3.31 13 -5.62 13 -8 13 C-7.34 12.67 -6.68 12.34 -6 12 C-6.020625 10.72125 -6.04125 9.4425 -6.0625 8.125 C-6.125 4.25 -6.125 4.25 -5 2 C-5.99 1.67 -6.98 1.34 -8 1 C-5.29120665 -0.35439668 -2.99066732 -0.06501451 0 0 Z " fill="#FDFBFE" transform="translate(161,31)"/>
<path d="M0 0 C3.1875 -0.3125 3.1875 -0.3125 6 0 C5.38125 0.7425 4.7625 1.485 4.125 2.25 C2.39562719 4.48801188 1.13893339 6.43739987 0 9 C-0.99 7.68 -1.98 6.36 -3 5 C-1.875 2.5 -1.875 2.5 0 0 Z " fill="#DFDEDD" transform="translate(131,273)"/>
<path d="M0 0 C1.65 0.99 3.3 1.98 5 3 C4.6875 4.875 4.6875 4.875 4 7 C3.01 7.66 2.02 8.32 1 9 C1 7.68 1 6.36 1 5 C0.01 4.67 -0.98 4.34 -2 4 C-1.34 2.68 -0.68 1.36 0 0 Z " fill="#F3F2F0" transform="translate(102,311)"/>
<path d="M0 0 C0.33 0 0.66 0 1 0 C1.33 2.64 1.66 5.28 2 8 C2.33 8 2.66 8 3 8 C3.66 11.96 4.32 15.92 5 20 C4.34 20 3.68 20 3 20 C0.18447274 13.21256822 -0.3689719 7.31110994 0 0 Z " fill="#ECEAEA" transform="translate(112,184)"/>
<path d="M0 0 C2.0625 0.4375 2.0625 0.4375 4 1 C3.38722388 3.96175123 2.74627478 5.38058783 1 8 C0.01 8 -0.98 8 -2 8 C-1.125 1.125 -1.125 1.125 0 0 Z " fill="#EFEBF6" transform="translate(144,75)"/>
<path d="M0 0 C0.99 0.33 1.98 0.66 3 1 C2.34 2.98 1.68 4.96 1 7 C0.34 5.68 -0.32 4.36 -1 3 C-2.32 5.64 -3.64 8.28 -5 11 C-5.66 11 -6.32 11 -7 11 C-5.72278474 6.00724943 -3.82669043 3.42388092 0 0 Z " fill="#DDDDDC" transform="translate(99,318)"/>
<path d="M0 0 C3.24208567 0.35049575 4.61527704 0.56221181 6.8125 3.0625 C7.204375 3.701875 7.59625 4.34125 8 5 C5.1875 5.625 5.1875 5.625 2 6 C1.01 5.34 0.02 4.68 -1 4 C-0.67 2.68 -0.34 1.36 0 0 Z " fill="#F1F1F0" transform="translate(118,309)"/>
<path d="M0 0 C0.66 0 1.32 0 2 0 C3.125 6.625 3.125 6.625 2 10 C-0.0625 10.6875 -0.0625 10.6875 -2 11 C-1.85957123 9.35369672 -1.71250671 7.70795821 -1.5625 6.0625 C-1.48128906 5.14597656 -1.40007812 4.22945313 -1.31640625 3.28515625 C-1 1 -1 1 0 0 Z " fill="#F2F2F1" transform="translate(248,311)"/>
<path d="M0 0 C0.99 0.33 1.98 0.66 3 1 C1.71480435 3.86697492 0.42870746 5.97607712 -2 8 C-2.66 8 -3.32 8 -4 8 C-3.50168276 4.31245243 -2.89932357 2.39509338 0 0 Z " fill="#CDCACC" transform="translate(256,245)"/>
<path d="M0 0 C0.33 1.32 0.66 2.64 1 4 C1.99 4 2.98 4 4 4 C4 4.66 4 5.32 4 6 C2.02 6 0.04 6 -2 6 C-2 5.34 -2 4.68 -2 4 C-4.16666667 4.83333333 -4.16666667 4.83333333 -5 7 C-6.32 5.68 -7.64 4.36 -9 3 C-6.36 3 -3.72 3 -1 3 C-0.67 2.01 -0.34 1.02 0 0 Z " fill="#DFD9EB" transform="translate(112,70)"/>
<path d="M0 0 C1.67542976 0.28604898 3.34385343 0.61781233 5 1 C4.01 1.33 3.02 1.66 2 2 C2 2.66 2 3.32 2 4 C2.99 3.67 3.98 3.34 5 3 C4.67 3.99 4.34 4.98 4 6 C1 7 1 7 -2 7 C-1.125 1.125 -1.125 1.125 0 0 Z " fill="#F1E7F3" transform="translate(175,32)"/>
<path d="M0 0 C0.66 0.66 1.32 1.32 2 2 C1.5625 4.375 1.5625 4.375 0 7 C-2.94119871 8.07001562 -5.90584243 8.57343918 -9 9 C-8.67 7.68 -8.34 6.36 -8 5 C-5.36 5 -2.72 5 0 5 C0 3.35 0 1.7 0 0 Z " fill="#D8D8D7" transform="translate(208,187)"/>
<path d="M0 0 C2.475 0.495 2.475 0.495 5 1 C5 1.33 5 1.66 5 2 C8.96 2.33 12.92 2.66 17 3 C17 3.33 17 3.66 17 4 C11.72 4 6.44 4 1 4 C0.67 2.68 0.34 1.36 0 0 Z " fill="#F4F3FB" transform="translate(250,75)"/>
<path d="M0 0 C-0.33 1.65 -0.66 3.3 -1 5 C-3.31 5 -5.62 5 -8 5 C-8 4.01 -8 3.02 -8 2 C-2.25 0 -2.25 0 0 0 Z " fill="#FDF9FD" transform="translate(110,63)"/>
<path d="M0 0 C0.66 0 1.32 0 2 0 C3.17353189 3.52059568 3.20146402 6.306493 3 10 C2.34 10.66 1.68 11.32 1 12 C-0.3271261 8.0186217 -0.06915913 4.14954773 0 0 Z " fill="#DEDED9" transform="translate(90,332)"/>
<path d="M0 0 C1.60875 0.928125 1.60875 0.928125 3.25 1.875 C5.79780984 3.3323679 8.35259355 4.72924491 11 6 C11 6.66 11 7.32 11 8 C7.05372236 7.43624605 4.20519925 6.40389944 1 4 C0.1875 1.8125 0.1875 1.8125 0 0 Z " fill="#E5E5E3" transform="translate(222,315)"/>
<path d="M0 0 C0.33 0.66 0.66 1.32 1 2 C-1.77280706 5.08089673 -4.06326356 6.68775452 -8 8 C-8 6.68 -8 5.36 -8 4 C-5.36 2.68 -2.72 1.36 0 0 Z " fill="#D5D4D2" transform="translate(249,252)"/>
<path d="M0 0 C-0.33 0.99 -0.66 1.98 -1 3 C-4.3 3.33 -7.6 3.66 -11 4 C-10.34 3.67 -9.68 3.34 -9 3 C-9 2.34 -9 1.68 -9 1 C-5.92677456 0.08941469 -3.19902639 -0.08886184 0 0 Z " fill="#E8E6E5" transform="translate(113,150)"/>
<path d="M0 0 C0.99 0.33 1.98 0.66 3 1 C4.1875 3.5625 4.1875 3.5625 5 6 C2 8 2 8 -1 8 C-1.04241723 5.66705225 -1.04092937 3.33297433 -1 1 C-0.67 0.67 -0.34 0.34 0 0 Z " fill="#FEFDFE" transform="translate(124,66)"/>
<path d="M0 0 C1.98 0.66 3.96 1.32 6 2 C6 4.97 6 7.94 6 11 C5.34 10.67 4.68 10.34 4 10 C4 8.02 4 6.04 4 4 C3.01 4 2.02 4 1 4 C0.67 2.68 0.34 1.36 0 0 Z " fill="#E5E3EF" transform="translate(47,64)"/>
<path d="M0 0 C4.455 0.99 4.455 0.99 9 2 C8.01 3.485 8.01 3.485 7 5 C4.36 4.34 1.72 3.68 -1 3 C-0.67 2.01 -0.34 1.02 0 0 Z " fill="#D6D7D6" transform="translate(221,328)"/>
<path d="M0 0 C0.33 0.66 0.66 1.32 1 2 C3.32156597 2.40729228 5.6568787 2.74438677 8 3 C8 3.66 8 4.32 8 5 C5.69 5 3.38 5 1 5 C1 5.66 1 6.32 1 7 C0.34 7 -0.32 7 -1 7 C-1.04254356 5.00045254 -1.04080783 2.99958364 -1 1 C-0.67 0.67 -0.34 0.34 0 0 Z " fill="#E2DEEC" transform="translate(131,62)"/>
<path d="M0 0 C-0.33 0.99 -0.66 1.98 -1 3 C-3.31 3.33 -5.62 3.66 -8 4 C-8 3.01 -8 2.02 -8 1 C-5.29120665 -0.35439668 -2.99066732 -0.06501451 0 0 Z " fill="#D6D6D7" transform="translate(233,295)"/>
<path d="M0 0 C0.33 0 0.66 0 1 0 C1.33 2.97 1.66 5.94 2 9 C0.68 9 -0.64 9 -2 9 C-2.125 5.625 -2.125 5.625 -2 2 C-1.34 1.34 -0.68 0.68 0 0 Z " fill="#EFEEEF" transform="translate(87,136)"/>
<path d="M0 0 C2.475 0.99 2.475 0.99 5 2 C5 2.99 5 3.98 5 5 C1.7 5 -1.6 5 -5 5 C-4.67 4.34 -4.34 3.68 -4 3 C-1.9375 2.375 -1.9375 2.375 0 2 C0 1.34 0 0.68 0 0 Z " fill="#E2E2E9" transform="translate(92,126)"/>
<path d="M0 0 C0.66 0 1.32 0 2 0 C2.625 2.3125 2.625 2.3125 3 5 C2.01 6.485 2.01 6.485 1 8 C0.01 8 -0.98 8 -2 8 C-1.33333333 5.33333333 -0.66666667 2.66666667 0 0 Z " fill="#EBE5F5" transform="translate(246,74)"/>
<path d="M0 0 C0.94875 0.350625 1.8975 0.70125 2.875 1.0625 C1.555 2.3825 0.235 3.7025 -1.125 5.0625 C-2.115 4.7325 -3.105 4.4025 -4.125 4.0625 C-4.8125 2 -4.8125 2 -5.125 0.0625 C-3.125 -0.9375 -3.125 -0.9375 0 0 Z " fill="#FCFAFD" transform="translate(79.125,73.9375)"/>
<path d="M0 0 C0.33 0.99 0.66 1.98 1 3 C0.01 3.66 -0.98 4.32 -2 5 C-3.36639342 6.6396721 -4.70513179 8.30327614 -6 10 C-6.66 8.68 -7.32 7.36 -8 6 C-7.01 5.67 -6.02 5.34 -5 5 C-4.67 4.01 -4.34 3.02 -4 2 C-2.68 2 -1.36 2 0 2 C0 1.34 0 0.68 0 0 Z " fill="#E4DDEC" transform="translate(198,32)"/>
<path d="M0 0 C0.66 0.66 1.32 1.32 2 2 C1.625 5.125 1.625 5.125 1 8 C0.34 8 -0.32 8 -1 8 C-1 7.01 -1 6.02 -1 5 C-1.99 4.67 -2.98 4.34 -4 4 C-2.68 3.34 -1.36 2.68 0 2 C0 1.34 0 0.68 0 0 Z " fill="#C8C7D8" transform="translate(261,324)"/>
<path d="M0 0 C0.99 0.495 0.99 0.495 2 1 C1.01 1.495 1.01 1.495 0 2 C0 1.34 0 0.68 0 0 Z M-1 2 C-0.67 2 -0.34 2 0 2 C0.22162329 3.62324086 0.42689803 5.248721 0.625 6.875 C0.74101563 7.77992188 0.85703125 8.68484375 0.9765625 9.6171875 C0.98429687 10.40351563 0.99203125 11.18984375 1 12 C0.34 12.66 -0.32 13.32 -1 14 C-1.19573608 12.56359829 -1.38127816 11.12580496 -1.5625 9.6875 C-1.66691406 8.88699219 -1.77132812 8.08648437 -1.87890625 7.26171875 C-2 5 -2 5 -1 2 Z " fill="#F0F0F0" transform="translate(98,298)"/>
<path d="M0 0 C0.66 0 1.32 0 2 0 C2.33 2.64 2.66 5.28 3 8 C2.01 8.33 1.02 8.66 0 9 C-0.87890625 2.84765625 -0.87890625 2.84765625 -1 1 C-0.67 0.67 -0.34 0.34 0 0 Z " fill="#EFEFED" transform="translate(232,289)"/>
<path d="M0 0 C1.98 0 3.96 0 6 0 C6 1.65 6 3.3 6 5 C4.35 5.33 2.7 5.66 1 6 C0.67 4.02 0.34 2.04 0 0 Z " fill="#E5E7E4" transform="translate(242,217)"/>
<path d="M0 0 C0.6875 2.8125 0.6875 2.8125 1 6 C-0.4375 7.875 -0.4375 7.875 -2 9 C-2.66 8.67 -3.32 8.34 -4 8 C-3.34 6.02 -2.68 4.04 -2 2 C-2.66 1.67 -3.32 1.34 -4 1 C-2 0 -2 0 0 0 Z " fill="#FCFBFC" transform="translate(47,64)"/>
<path d="M0 0 C0.33 0.66 0.66 1.32 1 2 C2.32 1.67 3.64 1.34 5 1 C5 1.66 5 2.32 5 3 C2.1875 4.5625 2.1875 4.5625 -1 6 C-1.99 5.67 -2.98 5.34 -4 5 C-3 2 -3 2 0 0 Z " fill="#E0D4E7" transform="translate(178,39)"/>
<path d="M0 0 C-0.375 1.9375 -0.375 1.9375 -1 4 C-1.99 4.495 -1.99 4.495 -3 5 C-3 5.66 -3 6.32 -3 7 C-3.66 7 -4.32 7 -5 7 C-5.33 5.02 -5.66 3.04 -6 1 C-3 0 -3 0 0 0 Z " fill="#D1D1CF" transform="translate(226,305)"/>
<path d="M0 0 C0 0.66 0 1.32 0 2 C-4.01804691 2.84098656 -7.01803543 3.05404945 -11 2 C-11 1.67 -11 1.34 -11 1 C-3.57142857 -1.42857143 -3.57142857 -1.42857143 0 0 Z " fill="#E3E2DF" transform="translate(254,305)"/>
<path d="M0 0 C-1.39332574 3.36720387 -2.9789286 4.9859524 -6 7 C-6.33 5.68 -6.66 4.36 -7 3 C-2.25 0 -2.25 0 0 0 Z " fill="#ECECEB" transform="translate(152,165)"/>
<path d="M0 0 C2.97 0.33 5.94 0.66 9 1 C7.68 1.33 6.36 1.66 5 2 C5 2.66 5 3.32 5 4 C3.35 4.66 1.7 5.32 0 6 C0 4.02 0 2.04 0 0 Z " fill="#E4DCE8" transform="translate(129,74)"/>
<path d="M0 0 C2.4375 0.75 2.4375 0.75 5 2 C5.8125 4.125 5.8125 4.125 6 6 C2.34683329 4.75023244 1.21934164 4.32901247 -1 1 C-0.67 0.67 -0.34 0.34 0 0 Z " fill="#E6E6E9" transform="translate(208,321)"/>
<path d="M0 0 C2.62386487 3.06117568 3 3.73173127 3 8 C2.34 8 1.68 8 1 8 C0.67 6.68 0.34 5.36 0 4 C-0.66 4 -1.32 4 -2 4 C-2 3.01 -2 2.02 -2 1 C-1.34 0.67 -0.68 0.34 0 0 Z " fill="#F0EEED" transform="translate(237,216)"/>
<path d="M0 0 C0.99 0.33 1.98 0.66 3 1 C3 1.99 3 2.98 3 4 C3.66 4 4.32 4 5 4 C5 4.66 5 5.32 5 6 C2.69 5.34 0.38 4.68 -2 4 C-2 3.34 -2 2.68 -2 2 C-1.34 2 -0.68 2 0 2 C0 1.34 0 0.68 0 0 Z " fill="#E3E3E0" transform="translate(230,213)"/>
<path d="M0 0 C1.65 0 3.3 0 5 0 C5 3 5 3 4 6 C3.01 6.33 2.02 6.66 1 7 C0.67 6.34 0.34 5.68 0 5 C0.66 5 1.32 5 2 5 C1.34 3.35 0.68 1.7 0 0 Z " fill="#E7E0EE" transform="translate(183,64)"/>
<path d="M0 0 C2.475 0.495 2.475 0.495 5 1 C4.67 3.31 4.34 5.62 4 8 C1.84622436 5.37801226 0.59927826 3.35595828 0 0 Z " fill="#E7DCEB" transform="translate(122,62)"/>
<path d="M0 0 C0.268125 0.639375 0.53625 1.27875 0.8125 1.9375 C1.88667752 4.33131686 1.88667752 4.33131686 5 5 C5 4.34 5 3.68 5 3 C5.66 3 6.32 3 7 3 C6.67 4.32 6.34 5.64 6 7 C4.68 7 3.36 7 2 7 C0 5 0 5 -0.125 2.375 C-0.08375 1.59125 -0.0425 0.8075 0 0 Z " fill="#F4F1F9" transform="translate(146,36)"/>
<path d="M0 0 C0.66 0.33 1.32 0.66 2 1 C2.09978121 4.49234244 1.77842938 7.59437148 1 11 C0.34 10.67 -0.32 10.34 -1 10 C-1.125 3.375 -1.125 3.375 0 0 Z " fill="#DCD1E9" transform="translate(143,31)"/>
<path d="M0 0 C2.97 0.495 2.97 0.495 6 1 C5.67 2.32 5.34 3.64 5 5 C3.35 5 1.7 5 0 5 C0 3.35 0 1.7 0 0 Z " fill="#E3E3DD" transform="translate(193,331)"/>
<path d="M0 0 C2.10814567 4.21629134 2.17700355 6.39790775 2 11 C1.01 10.34 0.02 9.68 -1 9 C-0.67 6.03 -0.34 3.06 0 0 Z " fill="#D9D7D4" transform="translate(101,291)"/>
<path d="M0 0 C0.99 0 1.98 0 3 0 C3 3.3 3 6.6 3 10 C2.01 9.34 1.02 8.68 0 8 C-0.40843923 5.28796348 -0.13336867 2.7562858 0 0 Z " fill="#E4E3DF" transform="translate(64,247)"/>
<path d="M0 0 C0.33 0 0.66 0 1 0 C1.33 1.98 1.66 3.96 2 6 C1.401875 5.835 0.80375 5.67 0.1875 5.5 C-2.11344336 4.8885876 -2.11344336 4.8885876 -5 5 C-4.67 3.68 -4.34 2.36 -4 1 C-4 1.66 -4 2.32 -4 3 C-3.01 2.67 -2.02 2.34 -1 2 C-0.67 1.34 -0.34 0.68 0 0 Z " fill="#FEFCFE" transform="translate(180,35)"/>
<path d="M0 0 C0.66 0.66 1.32 1.32 2 2 C0.68 4.97 -0.64 7.94 -2 11 C-2.66 10.67 -3.32 10.34 -4 10 C-2.68 6.7 -1.36 3.4 0 0 Z " fill="#E8E8E7" transform="translate(207,334)"/>
<path d="M0 0 C0.66 0.33 1.32 0.66 2 1 C1.34 3.97 0.68 6.94 0 10 C-0.66 10 -1.32 10 -2 10 C-2.22036864 6.14354879 -1.60355101 3.50776784 0 0 Z " fill="#E3E2E2" transform="translate(125,242)"/>
<path d="M0 0 C1 3 1 3 0 6 C-0.66 6 -1.32 6 -2 6 C-2.66 7.32 -3.32 8.64 -4 10 C-4 6.79604584 -3.25664978 4.90600261 -2 2 C-1.34 2 -0.68 2 0 2 C0 1.34 0 0.68 0 0 Z " fill="#EEEFEE" transform="translate(259,233)"/>
<path d="M0 0 C0 0.66 0 1.32 0 2 C-3.3 2 -6.6 2 -10 2 C-6.16991045 -0.55339303 -4.41711378 -1.47237126 0 0 Z " fill="#E4E4E3" transform="translate(104,118)"/>
<path d="M0 0 C0.33 0 0.66 0 1 0 C1.125 2.875 1.125 2.875 1 6 C0.34 6.66 -0.32 7.32 -1 8 C-1.99 8 -2.98 8 -4 8 C-4 7.34 -4 6.68 -4 6 C-3.34 6 -2.68 6 -2 6 C-2 5.01 -2 4.02 -2 3 C-1.34 3 -0.68 3 0 3 C0 2.01 0 1.02 0 0 Z " fill="#FEFCFE" transform="translate(169,36)"/>
<path d="M0 0 C0.66 0 1.32 0 2 0 C3.10844919 3.32534757 2.84454356 5.62182575 2 9 C1.34 8.67 0.68 8.34 0 8 C0 5.36 0 2.72 0 0 Z " fill="#DCDCDA" transform="translate(193,315)"/>
<path d="M0 0 C0.99 0.33 1.98 0.66 3 1 C2.67 2.65 2.34 4.3 2 6 C1.01 6 0.02 6 -1 6 C-0.67 4.02 -0.34 2.04 0 0 Z " fill="#F2F2EF" transform="translate(112,117)"/>
<path d="M0 0 C2.97 0.495 2.97 0.495 6 1 C6.33 1.99 6.66 2.98 7 4 C5.35 4 3.7 4 2 4 C2 3.34 2 2.68 2 2 C1.34 2 0.68 2 0 2 C0 1.34 0 0.68 0 0 Z " fill="#E3D9EA" transform="translate(104,67)"/>
<path d="M0 0 C2.475 0.495 2.475 0.495 5 1 C5 2.98 5 4.96 5 7 C4.34 7 3.68 7 3 7 C2.87625 6.360625 2.7525 5.72125 2.625 5.0625 C2.315625 4.0415625 2.315625 4.0415625 2 3 C1.34 2.67 0.68 2.34 0 2 C0 1.34 0 0.68 0 0 Z " fill="#E9DFEA" transform="translate(60,64)"/>
<path d="M0 0 C0.33 0.66 0.66 1.32 1 2 C1.99 2 2.98 2 4 2 C4.33 2.99 4.66 3.98 5 5 C3.02 5 1.04 5 -1 5 C-0.67 3.35 -0.34 1.7 0 0 Z " fill="#FDF9FE" transform="translate(191,40)"/>
<path d="M0 0 C2.475 0.495 2.475 0.495 5 1 C5.33 1.99 5.66 2.98 6 4 C4.02 4.33 2.04 4.66 0 5 C0 3.35 0 1.7 0 0 Z " fill="#EAE4EA" transform="translate(185,31)"/>
<path d="M0 0 C0.33 0.66 0.66 1.32 1 2 C0.67 2.66 0.34 3.32 0 4 C0.66 4.33 1.32 4.66 2 5 C1.67 5.99 1.34 6.98 1 8 C0.01 7.67 -0.98 7.34 -2 7 C-1.125 1.125 -1.125 1.125 0 0 Z " fill="#DACAD8" transform="translate(262,234)"/>
<path d="M0 0 C0.33 0 0.66 0 1 0 C1 1.65 1 3.3 1 5 C-0.98 5.33 -2.96 5.66 -5 6 C-4.67 5.01 -4.34 4.02 -4 3 C-3.01 2.67 -2.02 2.34 -1 2 C-0.67 1.34 -0.34 0.68 0 0 Z " fill="#DFDFDC" transform="translate(180,207)"/>
<path d="M0 0 C0.33 0.99 0.66 1.98 1 3 C1.66 3 2.32 3 3 3 C2.67 4.32 2.34 5.64 2 7 C1.01 7 0.02 7 -1 7 C-0.67 4.69 -0.34 2.38 0 0 Z " fill="#ECE5EF" transform="translate(210,75)"/>
<path d="M0 0 C0.33 0 0.66 0 1 0 C1 1.65 1 3.3 1 5 C0.34 4.67 -0.32 4.34 -1 4 C-0.67 2.68 -0.34 1.36 0 0 Z " fill="#FFFFFF" transform="translate(122,199)"/>
<path d="M0 0 C0.99 0 1.98 0 3 0 C2.67 0.99 2.34 1.98 2 3 C1.34 2.01 0.68 1.02 0 0 Z " fill="#FFFFFF" transform="translate(148,71)"/>
<path d="M0 0 C0.33 0 0.66 0 1 0 C1 1.65 1 3.3 1 5 C0.67 5 0.34 5 0 5 C0 3.35 0 1.7 0 0 Z " fill="#FFFFFF" transform="translate(187,159)"/>
<path d="M0 0 C1 4 1 4 1 4 Z " fill="#FFFFFF" transform="translate(92,172)"/>
<path d="M0 0 C0.66 0.66 1.32 1.32 2 2 C1.34 2 0.68 2 0 2 C0 1.34 0 0.68 0 0 Z " fill="#FFFFFF" transform="translate(137,302)"/>
<path d="M0 0 C0.33 0.66 0.66 1.32 1 2 C0.34 1.67 -0.32 1.34 -1 1 C-0.67 0.67 -0.34 0.34 0 0 Z " fill="#FFFFFF" transform="translate(200,284)"/>
<path d="M0 0 C0.33 0.66 0.66 1.32 1 2 C0.34 1.67 -0.32 1.34 -1 1 C-0.67 0.67 -0.34 0.34 0 0 Z " fill="#FFFFFF" transform="translate(241,230)"/>
<path d="" fill="#FFFFFF" transform="translate(0,0)"/>
<path d="" fill="#FFFFFF" transform="translate(0,0)"/>
<path d="" fill="#FFFFFF" transform="translate(0,0)"/>
<path d="" fill="#FFFFFF" transform="translate(0,0)"/>
<path d="" fill="#FFFFFF" transform="translate(0,0)"/>
</svg>
